%TF.GenerationSoftware,KiCad,Pcbnew,9.0.6*%
%TF.CreationDate,2025-12-26T18:46:45+13:00*%
%TF.ProjectId,PCB,5043422e-6b69-4636-9164-5f7063625858,rev?*%
%TF.SameCoordinates,Original*%
%TF.FileFunction,Legend,Top*%
%TF.FilePolarity,Positive*%
%FSLAX46Y46*%
G04 Gerber Fmt 4.6, Leading zero omitted, Abs format (unit mm)*
G04 Created by KiCad (PCBNEW 9.0.6) date 2025-12-26 18:46:45*
%MOMM*%
%LPD*%
G01*
G04 APERTURE LIST*
%ADD10C,0.150000*%
%ADD11C,0.101600*%
%ADD12C,0.120000*%
%ADD13C,0.127000*%
%ADD14C,0.100000*%
%ADD15C,0.504000*%
G04 APERTURE END LIST*
D10*
X221611905Y-133634819D02*
X221611905Y-132634819D01*
X221611905Y-132634819D02*
X221850000Y-132634819D01*
X221850000Y-132634819D02*
X221992857Y-132682438D01*
X221992857Y-132682438D02*
X222088095Y-132777676D01*
X222088095Y-132777676D02*
X222135714Y-132872914D01*
X222135714Y-132872914D02*
X222183333Y-133063390D01*
X222183333Y-133063390D02*
X222183333Y-133206247D01*
X222183333Y-133206247D02*
X222135714Y-133396723D01*
X222135714Y-133396723D02*
X222088095Y-133491961D01*
X222088095Y-133491961D02*
X221992857Y-133587200D01*
X221992857Y-133587200D02*
X221850000Y-133634819D01*
X221850000Y-133634819D02*
X221611905Y-133634819D01*
X222659524Y-133634819D02*
X222850000Y-133634819D01*
X222850000Y-133634819D02*
X222945238Y-133587200D01*
X222945238Y-133587200D02*
X222992857Y-133539580D01*
X222992857Y-133539580D02*
X223088095Y-133396723D01*
X223088095Y-133396723D02*
X223135714Y-133206247D01*
X223135714Y-133206247D02*
X223135714Y-132825295D01*
X223135714Y-132825295D02*
X223088095Y-132730057D01*
X223088095Y-132730057D02*
X223040476Y-132682438D01*
X223040476Y-132682438D02*
X222945238Y-132634819D01*
X222945238Y-132634819D02*
X222754762Y-132634819D01*
X222754762Y-132634819D02*
X222659524Y-132682438D01*
X222659524Y-132682438D02*
X222611905Y-132730057D01*
X222611905Y-132730057D02*
X222564286Y-132825295D01*
X222564286Y-132825295D02*
X222564286Y-133063390D01*
X222564286Y-133063390D02*
X222611905Y-133158628D01*
X222611905Y-133158628D02*
X222659524Y-133206247D01*
X222659524Y-133206247D02*
X222754762Y-133253866D01*
X222754762Y-133253866D02*
X222945238Y-133253866D01*
X222945238Y-133253866D02*
X223040476Y-133206247D01*
X223040476Y-133206247D02*
X223088095Y-133158628D01*
X223088095Y-133158628D02*
X223135714Y-133063390D01*
X212193095Y-133004819D02*
X212193095Y-132004819D01*
X212764523Y-133004819D02*
X212335952Y-132433390D01*
X212764523Y-132004819D02*
X212193095Y-132576247D01*
X177942917Y-79258200D02*
X178085774Y-79305819D01*
X178085774Y-79305819D02*
X178323869Y-79305819D01*
X178323869Y-79305819D02*
X178419107Y-79258200D01*
X178419107Y-79258200D02*
X178466726Y-79210580D01*
X178466726Y-79210580D02*
X178514345Y-79115342D01*
X178514345Y-79115342D02*
X178514345Y-79020104D01*
X178514345Y-79020104D02*
X178466726Y-78924866D01*
X178466726Y-78924866D02*
X178419107Y-78877247D01*
X178419107Y-78877247D02*
X178323869Y-78829628D01*
X178323869Y-78829628D02*
X178133393Y-78782009D01*
X178133393Y-78782009D02*
X178038155Y-78734390D01*
X178038155Y-78734390D02*
X177990536Y-78686771D01*
X177990536Y-78686771D02*
X177942917Y-78591533D01*
X177942917Y-78591533D02*
X177942917Y-78496295D01*
X177942917Y-78496295D02*
X177990536Y-78401057D01*
X177990536Y-78401057D02*
X178038155Y-78353438D01*
X178038155Y-78353438D02*
X178133393Y-78305819D01*
X178133393Y-78305819D02*
X178371488Y-78305819D01*
X178371488Y-78305819D02*
X178514345Y-78353438D01*
X178847679Y-78305819D02*
X179085774Y-79305819D01*
X179085774Y-79305819D02*
X179276250Y-78591533D01*
X179276250Y-78591533D02*
X179466726Y-79305819D01*
X179466726Y-79305819D02*
X179704822Y-78305819D01*
X180609583Y-79305819D02*
X180038155Y-79305819D01*
X180323869Y-79305819D02*
X180323869Y-78305819D01*
X180323869Y-78305819D02*
X180228631Y-78448676D01*
X180228631Y-78448676D02*
X180133393Y-78543914D01*
X180133393Y-78543914D02*
X180038155Y-78591533D01*
X221301905Y-114004819D02*
X221301905Y-113004819D01*
X221301905Y-113004819D02*
X221540000Y-113004819D01*
X221540000Y-113004819D02*
X221682857Y-113052438D01*
X221682857Y-113052438D02*
X221778095Y-113147676D01*
X221778095Y-113147676D02*
X221825714Y-113242914D01*
X221825714Y-113242914D02*
X221873333Y-113433390D01*
X221873333Y-113433390D02*
X221873333Y-113576247D01*
X221873333Y-113576247D02*
X221825714Y-113766723D01*
X221825714Y-113766723D02*
X221778095Y-113861961D01*
X221778095Y-113861961D02*
X221682857Y-113957200D01*
X221682857Y-113957200D02*
X221540000Y-114004819D01*
X221540000Y-114004819D02*
X221301905Y-114004819D01*
X222730476Y-113004819D02*
X222540000Y-113004819D01*
X222540000Y-113004819D02*
X222444762Y-113052438D01*
X222444762Y-113052438D02*
X222397143Y-113100057D01*
X222397143Y-113100057D02*
X222301905Y-113242914D01*
X222301905Y-113242914D02*
X222254286Y-113433390D01*
X222254286Y-113433390D02*
X222254286Y-113814342D01*
X222254286Y-113814342D02*
X222301905Y-113909580D01*
X222301905Y-113909580D02*
X222349524Y-113957200D01*
X222349524Y-113957200D02*
X222444762Y-114004819D01*
X222444762Y-114004819D02*
X222635238Y-114004819D01*
X222635238Y-114004819D02*
X222730476Y-113957200D01*
X222730476Y-113957200D02*
X222778095Y-113909580D01*
X222778095Y-113909580D02*
X222825714Y-113814342D01*
X222825714Y-113814342D02*
X222825714Y-113576247D01*
X222825714Y-113576247D02*
X222778095Y-113481009D01*
X222778095Y-113481009D02*
X222730476Y-113433390D01*
X222730476Y-113433390D02*
X222635238Y-113385771D01*
X222635238Y-113385771D02*
X222444762Y-113385771D01*
X222444762Y-113385771D02*
X222349524Y-113433390D01*
X222349524Y-113433390D02*
X222301905Y-113481009D01*
X222301905Y-113481009D02*
X222254286Y-113576247D01*
X212193095Y-113954819D02*
X212193095Y-112954819D01*
X212764523Y-113954819D02*
X212335952Y-113383390D01*
X212764523Y-112954819D02*
X212193095Y-113526247D01*
X183585714Y-152204819D02*
X183585714Y-151204819D01*
X183585714Y-151204819D02*
X183823809Y-151204819D01*
X183823809Y-151204819D02*
X183966666Y-151252438D01*
X183966666Y-151252438D02*
X184061904Y-151347676D01*
X184061904Y-151347676D02*
X184109523Y-151442914D01*
X184109523Y-151442914D02*
X184157142Y-151633390D01*
X184157142Y-151633390D02*
X184157142Y-151776247D01*
X184157142Y-151776247D02*
X184109523Y-151966723D01*
X184109523Y-151966723D02*
X184061904Y-152061961D01*
X184061904Y-152061961D02*
X183966666Y-152157200D01*
X183966666Y-152157200D02*
X183823809Y-152204819D01*
X183823809Y-152204819D02*
X183585714Y-152204819D01*
X185109523Y-152204819D02*
X184538095Y-152204819D01*
X184823809Y-152204819D02*
X184823809Y-151204819D01*
X184823809Y-151204819D02*
X184728571Y-151347676D01*
X184728571Y-151347676D02*
X184633333Y-151442914D01*
X184633333Y-151442914D02*
X184538095Y-151490533D01*
X185728571Y-151204819D02*
X185823809Y-151204819D01*
X185823809Y-151204819D02*
X185919047Y-151252438D01*
X185919047Y-151252438D02*
X185966666Y-151300057D01*
X185966666Y-151300057D02*
X186014285Y-151395295D01*
X186014285Y-151395295D02*
X186061904Y-151585771D01*
X186061904Y-151585771D02*
X186061904Y-151823866D01*
X186061904Y-151823866D02*
X186014285Y-152014342D01*
X186014285Y-152014342D02*
X185966666Y-152109580D01*
X185966666Y-152109580D02*
X185919047Y-152157200D01*
X185919047Y-152157200D02*
X185823809Y-152204819D01*
X185823809Y-152204819D02*
X185728571Y-152204819D01*
X185728571Y-152204819D02*
X185633333Y-152157200D01*
X185633333Y-152157200D02*
X185585714Y-152109580D01*
X185585714Y-152109580D02*
X185538095Y-152014342D01*
X185538095Y-152014342D02*
X185490476Y-151823866D01*
X185490476Y-151823866D02*
X185490476Y-151585771D01*
X185490476Y-151585771D02*
X185538095Y-151395295D01*
X185538095Y-151395295D02*
X185585714Y-151300057D01*
X185585714Y-151300057D02*
X185633333Y-151252438D01*
X185633333Y-151252438D02*
X185728571Y-151204819D01*
X174093095Y-152054819D02*
X174093095Y-151054819D01*
X174664523Y-152054819D02*
X174235952Y-151483390D01*
X174664523Y-151054819D02*
X174093095Y-151626247D01*
X221661905Y-95094819D02*
X221661905Y-94094819D01*
X221661905Y-94094819D02*
X221900000Y-94094819D01*
X221900000Y-94094819D02*
X222042857Y-94142438D01*
X222042857Y-94142438D02*
X222138095Y-94237676D01*
X222138095Y-94237676D02*
X222185714Y-94332914D01*
X222185714Y-94332914D02*
X222233333Y-94523390D01*
X222233333Y-94523390D02*
X222233333Y-94666247D01*
X222233333Y-94666247D02*
X222185714Y-94856723D01*
X222185714Y-94856723D02*
X222138095Y-94951961D01*
X222138095Y-94951961D02*
X222042857Y-95047200D01*
X222042857Y-95047200D02*
X221900000Y-95094819D01*
X221900000Y-95094819D02*
X221661905Y-95094819D01*
X222566667Y-94094819D02*
X223185714Y-94094819D01*
X223185714Y-94094819D02*
X222852381Y-94475771D01*
X222852381Y-94475771D02*
X222995238Y-94475771D01*
X222995238Y-94475771D02*
X223090476Y-94523390D01*
X223090476Y-94523390D02*
X223138095Y-94571009D01*
X223138095Y-94571009D02*
X223185714Y-94666247D01*
X223185714Y-94666247D02*
X223185714Y-94904342D01*
X223185714Y-94904342D02*
X223138095Y-94999580D01*
X223138095Y-94999580D02*
X223090476Y-95047200D01*
X223090476Y-95047200D02*
X222995238Y-95094819D01*
X222995238Y-95094819D02*
X222709524Y-95094819D01*
X222709524Y-95094819D02*
X222614286Y-95047200D01*
X222614286Y-95047200D02*
X222566667Y-94999580D01*
X212193095Y-94904819D02*
X212193095Y-93904819D01*
X212764523Y-94904819D02*
X212335952Y-94333390D01*
X212764523Y-93904819D02*
X212193095Y-94476247D01*
X183911905Y-95354819D02*
X183911905Y-94354819D01*
X183911905Y-94354819D02*
X184150000Y-94354819D01*
X184150000Y-94354819D02*
X184292857Y-94402438D01*
X184292857Y-94402438D02*
X184388095Y-94497676D01*
X184388095Y-94497676D02*
X184435714Y-94592914D01*
X184435714Y-94592914D02*
X184483333Y-94783390D01*
X184483333Y-94783390D02*
X184483333Y-94926247D01*
X184483333Y-94926247D02*
X184435714Y-95116723D01*
X184435714Y-95116723D02*
X184388095Y-95211961D01*
X184388095Y-95211961D02*
X184292857Y-95307200D01*
X184292857Y-95307200D02*
X184150000Y-95354819D01*
X184150000Y-95354819D02*
X183911905Y-95354819D01*
X185435714Y-95354819D02*
X184864286Y-95354819D01*
X185150000Y-95354819D02*
X185150000Y-94354819D01*
X185150000Y-94354819D02*
X185054762Y-94497676D01*
X185054762Y-94497676D02*
X184959524Y-94592914D01*
X184959524Y-94592914D02*
X184864286Y-94640533D01*
X174093095Y-94904819D02*
X174093095Y-93904819D01*
X174664523Y-94904819D02*
X174235952Y-94333390D01*
X174664523Y-93904819D02*
X174093095Y-94476247D01*
X183406667Y-98547200D02*
X183549524Y-98594819D01*
X183549524Y-98594819D02*
X183787619Y-98594819D01*
X183787619Y-98594819D02*
X183882857Y-98547200D01*
X183882857Y-98547200D02*
X183930476Y-98499580D01*
X183930476Y-98499580D02*
X183978095Y-98404342D01*
X183978095Y-98404342D02*
X183978095Y-98309104D01*
X183978095Y-98309104D02*
X183930476Y-98213866D01*
X183930476Y-98213866D02*
X183882857Y-98166247D01*
X183882857Y-98166247D02*
X183787619Y-98118628D01*
X183787619Y-98118628D02*
X183597143Y-98071009D01*
X183597143Y-98071009D02*
X183501905Y-98023390D01*
X183501905Y-98023390D02*
X183454286Y-97975771D01*
X183454286Y-97975771D02*
X183406667Y-97880533D01*
X183406667Y-97880533D02*
X183406667Y-97785295D01*
X183406667Y-97785295D02*
X183454286Y-97690057D01*
X183454286Y-97690057D02*
X183501905Y-97642438D01*
X183501905Y-97642438D02*
X183597143Y-97594819D01*
X183597143Y-97594819D02*
X183835238Y-97594819D01*
X183835238Y-97594819D02*
X183978095Y-97642438D01*
X184311429Y-97594819D02*
X184549524Y-98594819D01*
X184549524Y-98594819D02*
X184740000Y-97880533D01*
X184740000Y-97880533D02*
X184930476Y-98594819D01*
X184930476Y-98594819D02*
X185168572Y-97594819D01*
X185978095Y-97928152D02*
X185978095Y-98594819D01*
X185740000Y-97547200D02*
X185501905Y-98261485D01*
X185501905Y-98261485D02*
X186120952Y-98261485D01*
X216042917Y-79258200D02*
X216185774Y-79305819D01*
X216185774Y-79305819D02*
X216423869Y-79305819D01*
X216423869Y-79305819D02*
X216519107Y-79258200D01*
X216519107Y-79258200D02*
X216566726Y-79210580D01*
X216566726Y-79210580D02*
X216614345Y-79115342D01*
X216614345Y-79115342D02*
X216614345Y-79020104D01*
X216614345Y-79020104D02*
X216566726Y-78924866D01*
X216566726Y-78924866D02*
X216519107Y-78877247D01*
X216519107Y-78877247D02*
X216423869Y-78829628D01*
X216423869Y-78829628D02*
X216233393Y-78782009D01*
X216233393Y-78782009D02*
X216138155Y-78734390D01*
X216138155Y-78734390D02*
X216090536Y-78686771D01*
X216090536Y-78686771D02*
X216042917Y-78591533D01*
X216042917Y-78591533D02*
X216042917Y-78496295D01*
X216042917Y-78496295D02*
X216090536Y-78401057D01*
X216090536Y-78401057D02*
X216138155Y-78353438D01*
X216138155Y-78353438D02*
X216233393Y-78305819D01*
X216233393Y-78305819D02*
X216471488Y-78305819D01*
X216471488Y-78305819D02*
X216614345Y-78353438D01*
X216947679Y-78305819D02*
X217185774Y-79305819D01*
X217185774Y-79305819D02*
X217376250Y-78591533D01*
X217376250Y-78591533D02*
X217566726Y-79305819D01*
X217566726Y-79305819D02*
X217804822Y-78305819D01*
X218090536Y-78305819D02*
X218709583Y-78305819D01*
X218709583Y-78305819D02*
X218376250Y-78686771D01*
X218376250Y-78686771D02*
X218519107Y-78686771D01*
X218519107Y-78686771D02*
X218614345Y-78734390D01*
X218614345Y-78734390D02*
X218661964Y-78782009D01*
X218661964Y-78782009D02*
X218709583Y-78877247D01*
X218709583Y-78877247D02*
X218709583Y-79115342D01*
X218709583Y-79115342D02*
X218661964Y-79210580D01*
X218661964Y-79210580D02*
X218614345Y-79258200D01*
X218614345Y-79258200D02*
X218519107Y-79305819D01*
X218519107Y-79305819D02*
X218233393Y-79305819D01*
X218233393Y-79305819D02*
X218138155Y-79258200D01*
X218138155Y-79258200D02*
X218090536Y-79210580D01*
X183431905Y-114244819D02*
X183431905Y-113244819D01*
X183431905Y-113244819D02*
X183670000Y-113244819D01*
X183670000Y-113244819D02*
X183812857Y-113292438D01*
X183812857Y-113292438D02*
X183908095Y-113387676D01*
X183908095Y-113387676D02*
X183955714Y-113482914D01*
X183955714Y-113482914D02*
X184003333Y-113673390D01*
X184003333Y-113673390D02*
X184003333Y-113816247D01*
X184003333Y-113816247D02*
X183955714Y-114006723D01*
X183955714Y-114006723D02*
X183908095Y-114101961D01*
X183908095Y-114101961D02*
X183812857Y-114197200D01*
X183812857Y-114197200D02*
X183670000Y-114244819D01*
X183670000Y-114244819D02*
X183431905Y-114244819D01*
X184860476Y-113578152D02*
X184860476Y-114244819D01*
X184622381Y-113197200D02*
X184384286Y-113911485D01*
X184384286Y-113911485D02*
X185003333Y-113911485D01*
X174093095Y-113954819D02*
X174093095Y-112954819D01*
X174664523Y-113954819D02*
X174235952Y-113383390D01*
X174664523Y-112954819D02*
X174093095Y-113526247D01*
X202395714Y-152234819D02*
X202395714Y-151234819D01*
X202395714Y-151234819D02*
X202633809Y-151234819D01*
X202633809Y-151234819D02*
X202776666Y-151282438D01*
X202776666Y-151282438D02*
X202871904Y-151377676D01*
X202871904Y-151377676D02*
X202919523Y-151472914D01*
X202919523Y-151472914D02*
X202967142Y-151663390D01*
X202967142Y-151663390D02*
X202967142Y-151806247D01*
X202967142Y-151806247D02*
X202919523Y-151996723D01*
X202919523Y-151996723D02*
X202871904Y-152091961D01*
X202871904Y-152091961D02*
X202776666Y-152187200D01*
X202776666Y-152187200D02*
X202633809Y-152234819D01*
X202633809Y-152234819D02*
X202395714Y-152234819D01*
X203919523Y-152234819D02*
X203348095Y-152234819D01*
X203633809Y-152234819D02*
X203633809Y-151234819D01*
X203633809Y-151234819D02*
X203538571Y-151377676D01*
X203538571Y-151377676D02*
X203443333Y-151472914D01*
X203443333Y-151472914D02*
X203348095Y-151520533D01*
X204871904Y-152234819D02*
X204300476Y-152234819D01*
X204586190Y-152234819D02*
X204586190Y-151234819D01*
X204586190Y-151234819D02*
X204490952Y-151377676D01*
X204490952Y-151377676D02*
X204395714Y-151472914D01*
X204395714Y-151472914D02*
X204300476Y-151520533D01*
X193143095Y-152054819D02*
X193143095Y-151054819D01*
X193714523Y-152054819D02*
X193285952Y-151483390D01*
X193714523Y-151054819D02*
X193143095Y-151626247D01*
X202666667Y-97737200D02*
X202809524Y-97784819D01*
X202809524Y-97784819D02*
X203047619Y-97784819D01*
X203047619Y-97784819D02*
X203142857Y-97737200D01*
X203142857Y-97737200D02*
X203190476Y-97689580D01*
X203190476Y-97689580D02*
X203238095Y-97594342D01*
X203238095Y-97594342D02*
X203238095Y-97499104D01*
X203238095Y-97499104D02*
X203190476Y-97403866D01*
X203190476Y-97403866D02*
X203142857Y-97356247D01*
X203142857Y-97356247D02*
X203047619Y-97308628D01*
X203047619Y-97308628D02*
X202857143Y-97261009D01*
X202857143Y-97261009D02*
X202761905Y-97213390D01*
X202761905Y-97213390D02*
X202714286Y-97165771D01*
X202714286Y-97165771D02*
X202666667Y-97070533D01*
X202666667Y-97070533D02*
X202666667Y-96975295D01*
X202666667Y-96975295D02*
X202714286Y-96880057D01*
X202714286Y-96880057D02*
X202761905Y-96832438D01*
X202761905Y-96832438D02*
X202857143Y-96784819D01*
X202857143Y-96784819D02*
X203095238Y-96784819D01*
X203095238Y-96784819D02*
X203238095Y-96832438D01*
X203571429Y-96784819D02*
X203809524Y-97784819D01*
X203809524Y-97784819D02*
X204000000Y-97070533D01*
X204000000Y-97070533D02*
X204190476Y-97784819D01*
X204190476Y-97784819D02*
X204428572Y-96784819D01*
X205285714Y-96784819D02*
X204809524Y-96784819D01*
X204809524Y-96784819D02*
X204761905Y-97261009D01*
X204761905Y-97261009D02*
X204809524Y-97213390D01*
X204809524Y-97213390D02*
X204904762Y-97165771D01*
X204904762Y-97165771D02*
X205142857Y-97165771D01*
X205142857Y-97165771D02*
X205238095Y-97213390D01*
X205238095Y-97213390D02*
X205285714Y-97261009D01*
X205285714Y-97261009D02*
X205333333Y-97356247D01*
X205333333Y-97356247D02*
X205333333Y-97594342D01*
X205333333Y-97594342D02*
X205285714Y-97689580D01*
X205285714Y-97689580D02*
X205238095Y-97737200D01*
X205238095Y-97737200D02*
X205142857Y-97784819D01*
X205142857Y-97784819D02*
X204904762Y-97784819D01*
X204904762Y-97784819D02*
X204809524Y-97737200D01*
X204809524Y-97737200D02*
X204761905Y-97689580D01*
X189300476Y-136587200D02*
X189443333Y-136634819D01*
X189443333Y-136634819D02*
X189681428Y-136634819D01*
X189681428Y-136634819D02*
X189776666Y-136587200D01*
X189776666Y-136587200D02*
X189824285Y-136539580D01*
X189824285Y-136539580D02*
X189871904Y-136444342D01*
X189871904Y-136444342D02*
X189871904Y-136349104D01*
X189871904Y-136349104D02*
X189824285Y-136253866D01*
X189824285Y-136253866D02*
X189776666Y-136206247D01*
X189776666Y-136206247D02*
X189681428Y-136158628D01*
X189681428Y-136158628D02*
X189490952Y-136111009D01*
X189490952Y-136111009D02*
X189395714Y-136063390D01*
X189395714Y-136063390D02*
X189348095Y-136015771D01*
X189348095Y-136015771D02*
X189300476Y-135920533D01*
X189300476Y-135920533D02*
X189300476Y-135825295D01*
X189300476Y-135825295D02*
X189348095Y-135730057D01*
X189348095Y-135730057D02*
X189395714Y-135682438D01*
X189395714Y-135682438D02*
X189490952Y-135634819D01*
X189490952Y-135634819D02*
X189729047Y-135634819D01*
X189729047Y-135634819D02*
X189871904Y-135682438D01*
X190205238Y-135634819D02*
X190443333Y-136634819D01*
X190443333Y-136634819D02*
X190633809Y-135920533D01*
X190633809Y-135920533D02*
X190824285Y-136634819D01*
X190824285Y-136634819D02*
X191062381Y-135634819D01*
X191967142Y-136634819D02*
X191395714Y-136634819D01*
X191681428Y-136634819D02*
X191681428Y-135634819D01*
X191681428Y-135634819D02*
X191586190Y-135777676D01*
X191586190Y-135777676D02*
X191490952Y-135872914D01*
X191490952Y-135872914D02*
X191395714Y-135920533D01*
X192919523Y-136634819D02*
X192348095Y-136634819D01*
X192633809Y-136634819D02*
X192633809Y-135634819D01*
X192633809Y-135634819D02*
X192538571Y-135777676D01*
X192538571Y-135777676D02*
X192443333Y-135872914D01*
X192443333Y-135872914D02*
X192348095Y-135920533D01*
X196992917Y-79258200D02*
X197135774Y-79305819D01*
X197135774Y-79305819D02*
X197373869Y-79305819D01*
X197373869Y-79305819D02*
X197469107Y-79258200D01*
X197469107Y-79258200D02*
X197516726Y-79210580D01*
X197516726Y-79210580D02*
X197564345Y-79115342D01*
X197564345Y-79115342D02*
X197564345Y-79020104D01*
X197564345Y-79020104D02*
X197516726Y-78924866D01*
X197516726Y-78924866D02*
X197469107Y-78877247D01*
X197469107Y-78877247D02*
X197373869Y-78829628D01*
X197373869Y-78829628D02*
X197183393Y-78782009D01*
X197183393Y-78782009D02*
X197088155Y-78734390D01*
X197088155Y-78734390D02*
X197040536Y-78686771D01*
X197040536Y-78686771D02*
X196992917Y-78591533D01*
X196992917Y-78591533D02*
X196992917Y-78496295D01*
X196992917Y-78496295D02*
X197040536Y-78401057D01*
X197040536Y-78401057D02*
X197088155Y-78353438D01*
X197088155Y-78353438D02*
X197183393Y-78305819D01*
X197183393Y-78305819D02*
X197421488Y-78305819D01*
X197421488Y-78305819D02*
X197564345Y-78353438D01*
X197897679Y-78305819D02*
X198135774Y-79305819D01*
X198135774Y-79305819D02*
X198326250Y-78591533D01*
X198326250Y-78591533D02*
X198516726Y-79305819D01*
X198516726Y-79305819D02*
X198754822Y-78305819D01*
X199088155Y-78401057D02*
X199135774Y-78353438D01*
X199135774Y-78353438D02*
X199231012Y-78305819D01*
X199231012Y-78305819D02*
X199469107Y-78305819D01*
X199469107Y-78305819D02*
X199564345Y-78353438D01*
X199564345Y-78353438D02*
X199611964Y-78401057D01*
X199611964Y-78401057D02*
X199659583Y-78496295D01*
X199659583Y-78496295D02*
X199659583Y-78591533D01*
X199659583Y-78591533D02*
X199611964Y-78734390D01*
X199611964Y-78734390D02*
X199040536Y-79305819D01*
X199040536Y-79305819D02*
X199659583Y-79305819D01*
X204740476Y-58207200D02*
X204883333Y-58254819D01*
X204883333Y-58254819D02*
X205121428Y-58254819D01*
X205121428Y-58254819D02*
X205216666Y-58207200D01*
X205216666Y-58207200D02*
X205264285Y-58159580D01*
X205264285Y-58159580D02*
X205311904Y-58064342D01*
X205311904Y-58064342D02*
X205311904Y-57969104D01*
X205311904Y-57969104D02*
X205264285Y-57873866D01*
X205264285Y-57873866D02*
X205216666Y-57826247D01*
X205216666Y-57826247D02*
X205121428Y-57778628D01*
X205121428Y-57778628D02*
X204930952Y-57731009D01*
X204930952Y-57731009D02*
X204835714Y-57683390D01*
X204835714Y-57683390D02*
X204788095Y-57635771D01*
X204788095Y-57635771D02*
X204740476Y-57540533D01*
X204740476Y-57540533D02*
X204740476Y-57445295D01*
X204740476Y-57445295D02*
X204788095Y-57350057D01*
X204788095Y-57350057D02*
X204835714Y-57302438D01*
X204835714Y-57302438D02*
X204930952Y-57254819D01*
X204930952Y-57254819D02*
X205169047Y-57254819D01*
X205169047Y-57254819D02*
X205311904Y-57302438D01*
X205645238Y-57254819D02*
X205883333Y-58254819D01*
X205883333Y-58254819D02*
X206073809Y-57540533D01*
X206073809Y-57540533D02*
X206264285Y-58254819D01*
X206264285Y-58254819D02*
X206502381Y-57254819D01*
X207407142Y-58254819D02*
X206835714Y-58254819D01*
X207121428Y-58254819D02*
X207121428Y-57254819D01*
X207121428Y-57254819D02*
X207026190Y-57397676D01*
X207026190Y-57397676D02*
X206930952Y-57492914D01*
X206930952Y-57492914D02*
X206835714Y-57540533D01*
X207740476Y-57254819D02*
X208359523Y-57254819D01*
X208359523Y-57254819D02*
X208026190Y-57635771D01*
X208026190Y-57635771D02*
X208169047Y-57635771D01*
X208169047Y-57635771D02*
X208264285Y-57683390D01*
X208264285Y-57683390D02*
X208311904Y-57731009D01*
X208311904Y-57731009D02*
X208359523Y-57826247D01*
X208359523Y-57826247D02*
X208359523Y-58064342D01*
X208359523Y-58064342D02*
X208311904Y-58159580D01*
X208311904Y-58159580D02*
X208264285Y-58207200D01*
X208264285Y-58207200D02*
X208169047Y-58254819D01*
X208169047Y-58254819D02*
X207883333Y-58254819D01*
X207883333Y-58254819D02*
X207788095Y-58207200D01*
X207788095Y-58207200D02*
X207740476Y-58159580D01*
X222035714Y-61549819D02*
X222035714Y-60549819D01*
X222035714Y-60549819D02*
X222273809Y-60549819D01*
X222273809Y-60549819D02*
X222416666Y-60597438D01*
X222416666Y-60597438D02*
X222511904Y-60692676D01*
X222511904Y-60692676D02*
X222559523Y-60787914D01*
X222559523Y-60787914D02*
X222607142Y-60978390D01*
X222607142Y-60978390D02*
X222607142Y-61121247D01*
X222607142Y-61121247D02*
X222559523Y-61311723D01*
X222559523Y-61311723D02*
X222511904Y-61406961D01*
X222511904Y-61406961D02*
X222416666Y-61502200D01*
X222416666Y-61502200D02*
X222273809Y-61549819D01*
X222273809Y-61549819D02*
X222035714Y-61549819D01*
X223559523Y-61549819D02*
X222988095Y-61549819D01*
X223273809Y-61549819D02*
X223273809Y-60549819D01*
X223273809Y-60549819D02*
X223178571Y-60692676D01*
X223178571Y-60692676D02*
X223083333Y-60787914D01*
X223083333Y-60787914D02*
X222988095Y-60835533D01*
X223892857Y-60549819D02*
X224511904Y-60549819D01*
X224511904Y-60549819D02*
X224178571Y-60930771D01*
X224178571Y-60930771D02*
X224321428Y-60930771D01*
X224321428Y-60930771D02*
X224416666Y-60978390D01*
X224416666Y-60978390D02*
X224464285Y-61026009D01*
X224464285Y-61026009D02*
X224511904Y-61121247D01*
X224511904Y-61121247D02*
X224511904Y-61359342D01*
X224511904Y-61359342D02*
X224464285Y-61454580D01*
X224464285Y-61454580D02*
X224416666Y-61502200D01*
X224416666Y-61502200D02*
X224321428Y-61549819D01*
X224321428Y-61549819D02*
X224035714Y-61549819D01*
X224035714Y-61549819D02*
X223940476Y-61502200D01*
X223940476Y-61502200D02*
X223892857Y-61454580D01*
X220278571Y-63332295D02*
X219821428Y-63332295D01*
X220050000Y-63332295D02*
X220050000Y-62532295D01*
X220050000Y-62532295D02*
X219973809Y-62646580D01*
X219973809Y-62646580D02*
X219897619Y-62722771D01*
X219897619Y-62722771D02*
X219821428Y-62760866D01*
D11*
X178807440Y-56272311D02*
X178807440Y-56919930D01*
X178807440Y-56919930D02*
X178837678Y-56996120D01*
X178837678Y-56996120D02*
X178867916Y-57034216D01*
X178867916Y-57034216D02*
X178928392Y-57072311D01*
X178928392Y-57072311D02*
X179049345Y-57072311D01*
X179049345Y-57072311D02*
X179109821Y-57034216D01*
X179109821Y-57034216D02*
X179140059Y-56996120D01*
X179140059Y-56996120D02*
X179170297Y-56919930D01*
X179170297Y-56919930D02*
X179170297Y-56272311D01*
X179805297Y-57072311D02*
X179442440Y-57072311D01*
X179623868Y-57072311D02*
X179623868Y-56272311D01*
X179623868Y-56272311D02*
X179563392Y-56386596D01*
X179563392Y-56386596D02*
X179502916Y-56462787D01*
X179502916Y-56462787D02*
X179442440Y-56500882D01*
D10*
X202776667Y-117577200D02*
X202919524Y-117624819D01*
X202919524Y-117624819D02*
X203157619Y-117624819D01*
X203157619Y-117624819D02*
X203252857Y-117577200D01*
X203252857Y-117577200D02*
X203300476Y-117529580D01*
X203300476Y-117529580D02*
X203348095Y-117434342D01*
X203348095Y-117434342D02*
X203348095Y-117339104D01*
X203348095Y-117339104D02*
X203300476Y-117243866D01*
X203300476Y-117243866D02*
X203252857Y-117196247D01*
X203252857Y-117196247D02*
X203157619Y-117148628D01*
X203157619Y-117148628D02*
X202967143Y-117101009D01*
X202967143Y-117101009D02*
X202871905Y-117053390D01*
X202871905Y-117053390D02*
X202824286Y-117005771D01*
X202824286Y-117005771D02*
X202776667Y-116910533D01*
X202776667Y-116910533D02*
X202776667Y-116815295D01*
X202776667Y-116815295D02*
X202824286Y-116720057D01*
X202824286Y-116720057D02*
X202871905Y-116672438D01*
X202871905Y-116672438D02*
X202967143Y-116624819D01*
X202967143Y-116624819D02*
X203205238Y-116624819D01*
X203205238Y-116624819D02*
X203348095Y-116672438D01*
X203681429Y-116624819D02*
X203919524Y-117624819D01*
X203919524Y-117624819D02*
X204110000Y-116910533D01*
X204110000Y-116910533D02*
X204300476Y-117624819D01*
X204300476Y-117624819D02*
X204538572Y-116624819D01*
X205062381Y-117053390D02*
X204967143Y-117005771D01*
X204967143Y-117005771D02*
X204919524Y-116958152D01*
X204919524Y-116958152D02*
X204871905Y-116862914D01*
X204871905Y-116862914D02*
X204871905Y-116815295D01*
X204871905Y-116815295D02*
X204919524Y-116720057D01*
X204919524Y-116720057D02*
X204967143Y-116672438D01*
X204967143Y-116672438D02*
X205062381Y-116624819D01*
X205062381Y-116624819D02*
X205252857Y-116624819D01*
X205252857Y-116624819D02*
X205348095Y-116672438D01*
X205348095Y-116672438D02*
X205395714Y-116720057D01*
X205395714Y-116720057D02*
X205443333Y-116815295D01*
X205443333Y-116815295D02*
X205443333Y-116862914D01*
X205443333Y-116862914D02*
X205395714Y-116958152D01*
X205395714Y-116958152D02*
X205348095Y-117005771D01*
X205348095Y-117005771D02*
X205252857Y-117053390D01*
X205252857Y-117053390D02*
X205062381Y-117053390D01*
X205062381Y-117053390D02*
X204967143Y-117101009D01*
X204967143Y-117101009D02*
X204919524Y-117148628D01*
X204919524Y-117148628D02*
X204871905Y-117243866D01*
X204871905Y-117243866D02*
X204871905Y-117434342D01*
X204871905Y-117434342D02*
X204919524Y-117529580D01*
X204919524Y-117529580D02*
X204967143Y-117577200D01*
X204967143Y-117577200D02*
X205062381Y-117624819D01*
X205062381Y-117624819D02*
X205252857Y-117624819D01*
X205252857Y-117624819D02*
X205348095Y-117577200D01*
X205348095Y-117577200D02*
X205395714Y-117529580D01*
X205395714Y-117529580D02*
X205443333Y-117434342D01*
X205443333Y-117434342D02*
X205443333Y-117243866D01*
X205443333Y-117243866D02*
X205395714Y-117148628D01*
X205395714Y-117148628D02*
X205348095Y-117101009D01*
X205348095Y-117101009D02*
X205252857Y-117053390D01*
X170290476Y-136667200D02*
X170433333Y-136714819D01*
X170433333Y-136714819D02*
X170671428Y-136714819D01*
X170671428Y-136714819D02*
X170766666Y-136667200D01*
X170766666Y-136667200D02*
X170814285Y-136619580D01*
X170814285Y-136619580D02*
X170861904Y-136524342D01*
X170861904Y-136524342D02*
X170861904Y-136429104D01*
X170861904Y-136429104D02*
X170814285Y-136333866D01*
X170814285Y-136333866D02*
X170766666Y-136286247D01*
X170766666Y-136286247D02*
X170671428Y-136238628D01*
X170671428Y-136238628D02*
X170480952Y-136191009D01*
X170480952Y-136191009D02*
X170385714Y-136143390D01*
X170385714Y-136143390D02*
X170338095Y-136095771D01*
X170338095Y-136095771D02*
X170290476Y-136000533D01*
X170290476Y-136000533D02*
X170290476Y-135905295D01*
X170290476Y-135905295D02*
X170338095Y-135810057D01*
X170338095Y-135810057D02*
X170385714Y-135762438D01*
X170385714Y-135762438D02*
X170480952Y-135714819D01*
X170480952Y-135714819D02*
X170719047Y-135714819D01*
X170719047Y-135714819D02*
X170861904Y-135762438D01*
X171195238Y-135714819D02*
X171433333Y-136714819D01*
X171433333Y-136714819D02*
X171623809Y-136000533D01*
X171623809Y-136000533D02*
X171814285Y-136714819D01*
X171814285Y-136714819D02*
X172052381Y-135714819D01*
X172957142Y-136714819D02*
X172385714Y-136714819D01*
X172671428Y-136714819D02*
X172671428Y-135714819D01*
X172671428Y-135714819D02*
X172576190Y-135857676D01*
X172576190Y-135857676D02*
X172480952Y-135952914D01*
X172480952Y-135952914D02*
X172385714Y-136000533D01*
X173576190Y-135714819D02*
X173671428Y-135714819D01*
X173671428Y-135714819D02*
X173766666Y-135762438D01*
X173766666Y-135762438D02*
X173814285Y-135810057D01*
X173814285Y-135810057D02*
X173861904Y-135905295D01*
X173861904Y-135905295D02*
X173909523Y-136095771D01*
X173909523Y-136095771D02*
X173909523Y-136333866D01*
X173909523Y-136333866D02*
X173861904Y-136524342D01*
X173861904Y-136524342D02*
X173814285Y-136619580D01*
X173814285Y-136619580D02*
X173766666Y-136667200D01*
X173766666Y-136667200D02*
X173671428Y-136714819D01*
X173671428Y-136714819D02*
X173576190Y-136714819D01*
X173576190Y-136714819D02*
X173480952Y-136667200D01*
X173480952Y-136667200D02*
X173433333Y-136619580D01*
X173433333Y-136619580D02*
X173385714Y-136524342D01*
X173385714Y-136524342D02*
X173338095Y-136333866D01*
X173338095Y-136333866D02*
X173338095Y-136095771D01*
X173338095Y-136095771D02*
X173385714Y-135905295D01*
X173385714Y-135905295D02*
X173433333Y-135810057D01*
X173433333Y-135810057D02*
X173480952Y-135762438D01*
X173480952Y-135762438D02*
X173576190Y-135714819D01*
X221775714Y-152154819D02*
X221775714Y-151154819D01*
X221775714Y-151154819D02*
X222013809Y-151154819D01*
X222013809Y-151154819D02*
X222156666Y-151202438D01*
X222156666Y-151202438D02*
X222251904Y-151297676D01*
X222251904Y-151297676D02*
X222299523Y-151392914D01*
X222299523Y-151392914D02*
X222347142Y-151583390D01*
X222347142Y-151583390D02*
X222347142Y-151726247D01*
X222347142Y-151726247D02*
X222299523Y-151916723D01*
X222299523Y-151916723D02*
X222251904Y-152011961D01*
X222251904Y-152011961D02*
X222156666Y-152107200D01*
X222156666Y-152107200D02*
X222013809Y-152154819D01*
X222013809Y-152154819D02*
X221775714Y-152154819D01*
X223299523Y-152154819D02*
X222728095Y-152154819D01*
X223013809Y-152154819D02*
X223013809Y-151154819D01*
X223013809Y-151154819D02*
X222918571Y-151297676D01*
X222918571Y-151297676D02*
X222823333Y-151392914D01*
X222823333Y-151392914D02*
X222728095Y-151440533D01*
X223680476Y-151250057D02*
X223728095Y-151202438D01*
X223728095Y-151202438D02*
X223823333Y-151154819D01*
X223823333Y-151154819D02*
X224061428Y-151154819D01*
X224061428Y-151154819D02*
X224156666Y-151202438D01*
X224156666Y-151202438D02*
X224204285Y-151250057D01*
X224204285Y-151250057D02*
X224251904Y-151345295D01*
X224251904Y-151345295D02*
X224251904Y-151440533D01*
X224251904Y-151440533D02*
X224204285Y-151583390D01*
X224204285Y-151583390D02*
X223632857Y-152154819D01*
X223632857Y-152154819D02*
X224251904Y-152154819D01*
X212193095Y-152054819D02*
X212193095Y-151054819D01*
X212764523Y-152054819D02*
X212335952Y-151483390D01*
X212764523Y-151054819D02*
X212193095Y-151626247D01*
X221586667Y-98127200D02*
X221729524Y-98174819D01*
X221729524Y-98174819D02*
X221967619Y-98174819D01*
X221967619Y-98174819D02*
X222062857Y-98127200D01*
X222062857Y-98127200D02*
X222110476Y-98079580D01*
X222110476Y-98079580D02*
X222158095Y-97984342D01*
X222158095Y-97984342D02*
X222158095Y-97889104D01*
X222158095Y-97889104D02*
X222110476Y-97793866D01*
X222110476Y-97793866D02*
X222062857Y-97746247D01*
X222062857Y-97746247D02*
X221967619Y-97698628D01*
X221967619Y-97698628D02*
X221777143Y-97651009D01*
X221777143Y-97651009D02*
X221681905Y-97603390D01*
X221681905Y-97603390D02*
X221634286Y-97555771D01*
X221634286Y-97555771D02*
X221586667Y-97460533D01*
X221586667Y-97460533D02*
X221586667Y-97365295D01*
X221586667Y-97365295D02*
X221634286Y-97270057D01*
X221634286Y-97270057D02*
X221681905Y-97222438D01*
X221681905Y-97222438D02*
X221777143Y-97174819D01*
X221777143Y-97174819D02*
X222015238Y-97174819D01*
X222015238Y-97174819D02*
X222158095Y-97222438D01*
X222491429Y-97174819D02*
X222729524Y-98174819D01*
X222729524Y-98174819D02*
X222920000Y-97460533D01*
X222920000Y-97460533D02*
X223110476Y-98174819D01*
X223110476Y-98174819D02*
X223348572Y-97174819D01*
X224158095Y-97174819D02*
X223967619Y-97174819D01*
X223967619Y-97174819D02*
X223872381Y-97222438D01*
X223872381Y-97222438D02*
X223824762Y-97270057D01*
X223824762Y-97270057D02*
X223729524Y-97412914D01*
X223729524Y-97412914D02*
X223681905Y-97603390D01*
X223681905Y-97603390D02*
X223681905Y-97984342D01*
X223681905Y-97984342D02*
X223729524Y-98079580D01*
X223729524Y-98079580D02*
X223777143Y-98127200D01*
X223777143Y-98127200D02*
X223872381Y-98174819D01*
X223872381Y-98174819D02*
X224062857Y-98174819D01*
X224062857Y-98174819D02*
X224158095Y-98127200D01*
X224158095Y-98127200D02*
X224205714Y-98079580D01*
X224205714Y-98079580D02*
X224253333Y-97984342D01*
X224253333Y-97984342D02*
X224253333Y-97746247D01*
X224253333Y-97746247D02*
X224205714Y-97651009D01*
X224205714Y-97651009D02*
X224158095Y-97603390D01*
X224158095Y-97603390D02*
X224062857Y-97555771D01*
X224062857Y-97555771D02*
X223872381Y-97555771D01*
X223872381Y-97555771D02*
X223777143Y-97603390D01*
X223777143Y-97603390D02*
X223729524Y-97651009D01*
X223729524Y-97651009D02*
X223681905Y-97746247D01*
X202311905Y-113954819D02*
X202311905Y-112954819D01*
X202311905Y-112954819D02*
X202550000Y-112954819D01*
X202550000Y-112954819D02*
X202692857Y-113002438D01*
X202692857Y-113002438D02*
X202788095Y-113097676D01*
X202788095Y-113097676D02*
X202835714Y-113192914D01*
X202835714Y-113192914D02*
X202883333Y-113383390D01*
X202883333Y-113383390D02*
X202883333Y-113526247D01*
X202883333Y-113526247D02*
X202835714Y-113716723D01*
X202835714Y-113716723D02*
X202788095Y-113811961D01*
X202788095Y-113811961D02*
X202692857Y-113907200D01*
X202692857Y-113907200D02*
X202550000Y-113954819D01*
X202550000Y-113954819D02*
X202311905Y-113954819D01*
X203788095Y-112954819D02*
X203311905Y-112954819D01*
X203311905Y-112954819D02*
X203264286Y-113431009D01*
X203264286Y-113431009D02*
X203311905Y-113383390D01*
X203311905Y-113383390D02*
X203407143Y-113335771D01*
X203407143Y-113335771D02*
X203645238Y-113335771D01*
X203645238Y-113335771D02*
X203740476Y-113383390D01*
X203740476Y-113383390D02*
X203788095Y-113431009D01*
X203788095Y-113431009D02*
X203835714Y-113526247D01*
X203835714Y-113526247D02*
X203835714Y-113764342D01*
X203835714Y-113764342D02*
X203788095Y-113859580D01*
X203788095Y-113859580D02*
X203740476Y-113907200D01*
X203740476Y-113907200D02*
X203645238Y-113954819D01*
X203645238Y-113954819D02*
X203407143Y-113954819D01*
X203407143Y-113954819D02*
X203311905Y-113907200D01*
X203311905Y-113907200D02*
X203264286Y-113859580D01*
X193143095Y-113954819D02*
X193143095Y-112954819D01*
X193714523Y-113954819D02*
X193285952Y-113383390D01*
X193714523Y-112954819D02*
X193143095Y-113526247D01*
X172165714Y-61844819D02*
X172165714Y-60844819D01*
X172165714Y-60844819D02*
X172403809Y-60844819D01*
X172403809Y-60844819D02*
X172546666Y-60892438D01*
X172546666Y-60892438D02*
X172641904Y-60987676D01*
X172641904Y-60987676D02*
X172689523Y-61082914D01*
X172689523Y-61082914D02*
X172737142Y-61273390D01*
X172737142Y-61273390D02*
X172737142Y-61416247D01*
X172737142Y-61416247D02*
X172689523Y-61606723D01*
X172689523Y-61606723D02*
X172641904Y-61701961D01*
X172641904Y-61701961D02*
X172546666Y-61797200D01*
X172546666Y-61797200D02*
X172403809Y-61844819D01*
X172403809Y-61844819D02*
X172165714Y-61844819D01*
X173689523Y-61844819D02*
X173118095Y-61844819D01*
X173403809Y-61844819D02*
X173403809Y-60844819D01*
X173403809Y-60844819D02*
X173308571Y-60987676D01*
X173308571Y-60987676D02*
X173213333Y-61082914D01*
X173213333Y-61082914D02*
X173118095Y-61130533D01*
X174546666Y-61178152D02*
X174546666Y-61844819D01*
X174308571Y-60797200D02*
X174070476Y-61511485D01*
X174070476Y-61511485D02*
X174689523Y-61511485D01*
X170408571Y-63627295D02*
X169951428Y-63627295D01*
X170180000Y-63627295D02*
X170180000Y-62827295D01*
X170180000Y-62827295D02*
X170103809Y-62941580D01*
X170103809Y-62941580D02*
X170027619Y-63017771D01*
X170027619Y-63017771D02*
X169951428Y-63055866D01*
X183336667Y-117577200D02*
X183479524Y-117624819D01*
X183479524Y-117624819D02*
X183717619Y-117624819D01*
X183717619Y-117624819D02*
X183812857Y-117577200D01*
X183812857Y-117577200D02*
X183860476Y-117529580D01*
X183860476Y-117529580D02*
X183908095Y-117434342D01*
X183908095Y-117434342D02*
X183908095Y-117339104D01*
X183908095Y-117339104D02*
X183860476Y-117243866D01*
X183860476Y-117243866D02*
X183812857Y-117196247D01*
X183812857Y-117196247D02*
X183717619Y-117148628D01*
X183717619Y-117148628D02*
X183527143Y-117101009D01*
X183527143Y-117101009D02*
X183431905Y-117053390D01*
X183431905Y-117053390D02*
X183384286Y-117005771D01*
X183384286Y-117005771D02*
X183336667Y-116910533D01*
X183336667Y-116910533D02*
X183336667Y-116815295D01*
X183336667Y-116815295D02*
X183384286Y-116720057D01*
X183384286Y-116720057D02*
X183431905Y-116672438D01*
X183431905Y-116672438D02*
X183527143Y-116624819D01*
X183527143Y-116624819D02*
X183765238Y-116624819D01*
X183765238Y-116624819D02*
X183908095Y-116672438D01*
X184241429Y-116624819D02*
X184479524Y-117624819D01*
X184479524Y-117624819D02*
X184670000Y-116910533D01*
X184670000Y-116910533D02*
X184860476Y-117624819D01*
X184860476Y-117624819D02*
X185098572Y-116624819D01*
X185384286Y-116624819D02*
X186050952Y-116624819D01*
X186050952Y-116624819D02*
X185622381Y-117624819D01*
X202771905Y-134664819D02*
X202771905Y-133664819D01*
X202771905Y-133664819D02*
X203010000Y-133664819D01*
X203010000Y-133664819D02*
X203152857Y-133712438D01*
X203152857Y-133712438D02*
X203248095Y-133807676D01*
X203248095Y-133807676D02*
X203295714Y-133902914D01*
X203295714Y-133902914D02*
X203343333Y-134093390D01*
X203343333Y-134093390D02*
X203343333Y-134236247D01*
X203343333Y-134236247D02*
X203295714Y-134426723D01*
X203295714Y-134426723D02*
X203248095Y-134521961D01*
X203248095Y-134521961D02*
X203152857Y-134617200D01*
X203152857Y-134617200D02*
X203010000Y-134664819D01*
X203010000Y-134664819D02*
X202771905Y-134664819D01*
X203914762Y-134093390D02*
X203819524Y-134045771D01*
X203819524Y-134045771D02*
X203771905Y-133998152D01*
X203771905Y-133998152D02*
X203724286Y-133902914D01*
X203724286Y-133902914D02*
X203724286Y-133855295D01*
X203724286Y-133855295D02*
X203771905Y-133760057D01*
X203771905Y-133760057D02*
X203819524Y-133712438D01*
X203819524Y-133712438D02*
X203914762Y-133664819D01*
X203914762Y-133664819D02*
X204105238Y-133664819D01*
X204105238Y-133664819D02*
X204200476Y-133712438D01*
X204200476Y-133712438D02*
X204248095Y-133760057D01*
X204248095Y-133760057D02*
X204295714Y-133855295D01*
X204295714Y-133855295D02*
X204295714Y-133902914D01*
X204295714Y-133902914D02*
X204248095Y-133998152D01*
X204248095Y-133998152D02*
X204200476Y-134045771D01*
X204200476Y-134045771D02*
X204105238Y-134093390D01*
X204105238Y-134093390D02*
X203914762Y-134093390D01*
X203914762Y-134093390D02*
X203819524Y-134141009D01*
X203819524Y-134141009D02*
X203771905Y-134188628D01*
X203771905Y-134188628D02*
X203724286Y-134283866D01*
X203724286Y-134283866D02*
X203724286Y-134474342D01*
X203724286Y-134474342D02*
X203771905Y-134569580D01*
X203771905Y-134569580D02*
X203819524Y-134617200D01*
X203819524Y-134617200D02*
X203914762Y-134664819D01*
X203914762Y-134664819D02*
X204105238Y-134664819D01*
X204105238Y-134664819D02*
X204200476Y-134617200D01*
X204200476Y-134617200D02*
X204248095Y-134569580D01*
X204248095Y-134569580D02*
X204295714Y-134474342D01*
X204295714Y-134474342D02*
X204295714Y-134283866D01*
X204295714Y-134283866D02*
X204248095Y-134188628D01*
X204248095Y-134188628D02*
X204200476Y-134141009D01*
X204200476Y-134141009D02*
X204105238Y-134093390D01*
X193143095Y-133004819D02*
X193143095Y-132004819D01*
X193714523Y-133004819D02*
X193285952Y-132433390D01*
X193714523Y-132004819D02*
X193143095Y-132576247D01*
X202621905Y-95094819D02*
X202621905Y-94094819D01*
X202621905Y-94094819D02*
X202860000Y-94094819D01*
X202860000Y-94094819D02*
X203002857Y-94142438D01*
X203002857Y-94142438D02*
X203098095Y-94237676D01*
X203098095Y-94237676D02*
X203145714Y-94332914D01*
X203145714Y-94332914D02*
X203193333Y-94523390D01*
X203193333Y-94523390D02*
X203193333Y-94666247D01*
X203193333Y-94666247D02*
X203145714Y-94856723D01*
X203145714Y-94856723D02*
X203098095Y-94951961D01*
X203098095Y-94951961D02*
X203002857Y-95047200D01*
X203002857Y-95047200D02*
X202860000Y-95094819D01*
X202860000Y-95094819D02*
X202621905Y-95094819D01*
X203574286Y-94190057D02*
X203621905Y-94142438D01*
X203621905Y-94142438D02*
X203717143Y-94094819D01*
X203717143Y-94094819D02*
X203955238Y-94094819D01*
X203955238Y-94094819D02*
X204050476Y-94142438D01*
X204050476Y-94142438D02*
X204098095Y-94190057D01*
X204098095Y-94190057D02*
X204145714Y-94285295D01*
X204145714Y-94285295D02*
X204145714Y-94380533D01*
X204145714Y-94380533D02*
X204098095Y-94523390D01*
X204098095Y-94523390D02*
X203526667Y-95094819D01*
X203526667Y-95094819D02*
X204145714Y-95094819D01*
X193143095Y-94904819D02*
X193143095Y-93904819D01*
X193714523Y-94904819D02*
X193285952Y-94333390D01*
X193714523Y-93904819D02*
X193143095Y-94476247D01*
X221356667Y-117167200D02*
X221499524Y-117214819D01*
X221499524Y-117214819D02*
X221737619Y-117214819D01*
X221737619Y-117214819D02*
X221832857Y-117167200D01*
X221832857Y-117167200D02*
X221880476Y-117119580D01*
X221880476Y-117119580D02*
X221928095Y-117024342D01*
X221928095Y-117024342D02*
X221928095Y-116929104D01*
X221928095Y-116929104D02*
X221880476Y-116833866D01*
X221880476Y-116833866D02*
X221832857Y-116786247D01*
X221832857Y-116786247D02*
X221737619Y-116738628D01*
X221737619Y-116738628D02*
X221547143Y-116691009D01*
X221547143Y-116691009D02*
X221451905Y-116643390D01*
X221451905Y-116643390D02*
X221404286Y-116595771D01*
X221404286Y-116595771D02*
X221356667Y-116500533D01*
X221356667Y-116500533D02*
X221356667Y-116405295D01*
X221356667Y-116405295D02*
X221404286Y-116310057D01*
X221404286Y-116310057D02*
X221451905Y-116262438D01*
X221451905Y-116262438D02*
X221547143Y-116214819D01*
X221547143Y-116214819D02*
X221785238Y-116214819D01*
X221785238Y-116214819D02*
X221928095Y-116262438D01*
X222261429Y-116214819D02*
X222499524Y-117214819D01*
X222499524Y-117214819D02*
X222690000Y-116500533D01*
X222690000Y-116500533D02*
X222880476Y-117214819D01*
X222880476Y-117214819D02*
X223118572Y-116214819D01*
X223547143Y-117214819D02*
X223737619Y-117214819D01*
X223737619Y-117214819D02*
X223832857Y-117167200D01*
X223832857Y-117167200D02*
X223880476Y-117119580D01*
X223880476Y-117119580D02*
X223975714Y-116976723D01*
X223975714Y-116976723D02*
X224023333Y-116786247D01*
X224023333Y-116786247D02*
X224023333Y-116405295D01*
X224023333Y-116405295D02*
X223975714Y-116310057D01*
X223975714Y-116310057D02*
X223928095Y-116262438D01*
X223928095Y-116262438D02*
X223832857Y-116214819D01*
X223832857Y-116214819D02*
X223642381Y-116214819D01*
X223642381Y-116214819D02*
X223547143Y-116262438D01*
X223547143Y-116262438D02*
X223499524Y-116310057D01*
X223499524Y-116310057D02*
X223451905Y-116405295D01*
X223451905Y-116405295D02*
X223451905Y-116643390D01*
X223451905Y-116643390D02*
X223499524Y-116738628D01*
X223499524Y-116738628D02*
X223547143Y-116786247D01*
X223547143Y-116786247D02*
X223642381Y-116833866D01*
X223642381Y-116833866D02*
X223832857Y-116833866D01*
X223832857Y-116833866D02*
X223928095Y-116786247D01*
X223928095Y-116786247D02*
X223975714Y-116738628D01*
X223975714Y-116738628D02*
X224023333Y-116643390D01*
X221540476Y-136177200D02*
X221683333Y-136224819D01*
X221683333Y-136224819D02*
X221921428Y-136224819D01*
X221921428Y-136224819D02*
X222016666Y-136177200D01*
X222016666Y-136177200D02*
X222064285Y-136129580D01*
X222064285Y-136129580D02*
X222111904Y-136034342D01*
X222111904Y-136034342D02*
X222111904Y-135939104D01*
X222111904Y-135939104D02*
X222064285Y-135843866D01*
X222064285Y-135843866D02*
X222016666Y-135796247D01*
X222016666Y-135796247D02*
X221921428Y-135748628D01*
X221921428Y-135748628D02*
X221730952Y-135701009D01*
X221730952Y-135701009D02*
X221635714Y-135653390D01*
X221635714Y-135653390D02*
X221588095Y-135605771D01*
X221588095Y-135605771D02*
X221540476Y-135510533D01*
X221540476Y-135510533D02*
X221540476Y-135415295D01*
X221540476Y-135415295D02*
X221588095Y-135320057D01*
X221588095Y-135320057D02*
X221635714Y-135272438D01*
X221635714Y-135272438D02*
X221730952Y-135224819D01*
X221730952Y-135224819D02*
X221969047Y-135224819D01*
X221969047Y-135224819D02*
X222111904Y-135272438D01*
X222445238Y-135224819D02*
X222683333Y-136224819D01*
X222683333Y-136224819D02*
X222873809Y-135510533D01*
X222873809Y-135510533D02*
X223064285Y-136224819D01*
X223064285Y-136224819D02*
X223302381Y-135224819D01*
X224207142Y-136224819D02*
X223635714Y-136224819D01*
X223921428Y-136224819D02*
X223921428Y-135224819D01*
X223921428Y-135224819D02*
X223826190Y-135367676D01*
X223826190Y-135367676D02*
X223730952Y-135462914D01*
X223730952Y-135462914D02*
X223635714Y-135510533D01*
X224588095Y-135320057D02*
X224635714Y-135272438D01*
X224635714Y-135272438D02*
X224730952Y-135224819D01*
X224730952Y-135224819D02*
X224969047Y-135224819D01*
X224969047Y-135224819D02*
X225064285Y-135272438D01*
X225064285Y-135272438D02*
X225111904Y-135320057D01*
X225111904Y-135320057D02*
X225159523Y-135415295D01*
X225159523Y-135415295D02*
X225159523Y-135510533D01*
X225159523Y-135510533D02*
X225111904Y-135653390D01*
X225111904Y-135653390D02*
X224540476Y-136224819D01*
X224540476Y-136224819D02*
X225159523Y-136224819D01*
X183731905Y-133814819D02*
X183731905Y-132814819D01*
X183731905Y-132814819D02*
X183970000Y-132814819D01*
X183970000Y-132814819D02*
X184112857Y-132862438D01*
X184112857Y-132862438D02*
X184208095Y-132957676D01*
X184208095Y-132957676D02*
X184255714Y-133052914D01*
X184255714Y-133052914D02*
X184303333Y-133243390D01*
X184303333Y-133243390D02*
X184303333Y-133386247D01*
X184303333Y-133386247D02*
X184255714Y-133576723D01*
X184255714Y-133576723D02*
X184208095Y-133671961D01*
X184208095Y-133671961D02*
X184112857Y-133767200D01*
X184112857Y-133767200D02*
X183970000Y-133814819D01*
X183970000Y-133814819D02*
X183731905Y-133814819D01*
X184636667Y-132814819D02*
X185303333Y-132814819D01*
X185303333Y-132814819D02*
X184874762Y-133814819D01*
X174093095Y-133004819D02*
X174093095Y-132004819D01*
X174664523Y-133004819D02*
X174235952Y-132433390D01*
X174664523Y-132004819D02*
X174093095Y-132576247D01*
D12*
%TO.C,D9*%
X213495000Y-134350000D02*
X214145000Y-134350000D01*
X214745000Y-133230000D02*
X214745000Y-135470000D01*
X214865000Y-133230000D02*
X214865000Y-135470000D01*
X214985000Y-133230000D02*
X214985000Y-135470000D01*
X219035000Y-134350000D02*
X218385000Y-134350000D01*
X214145000Y-133230000D02*
X218385000Y-133230000D01*
X218385000Y-135470000D01*
X214145000Y-135470000D01*
X214145000Y-133230000D01*
%TO.C,SW1*%
X172291250Y-79740000D02*
X186261250Y-79740000D01*
X172291250Y-93710000D02*
X172291250Y-79740000D01*
X186261250Y-79740000D02*
X186261250Y-93710000D01*
X186261250Y-93710000D02*
X172291250Y-93710000D01*
%TO.C,D6*%
X213495000Y-115300000D02*
X214145000Y-115300000D01*
X214745000Y-114180000D02*
X214745000Y-116420000D01*
X214865000Y-114180000D02*
X214865000Y-116420000D01*
X214985000Y-114180000D02*
X214985000Y-116420000D01*
X219035000Y-115300000D02*
X218385000Y-115300000D01*
X214145000Y-114180000D02*
X218385000Y-114180000D01*
X218385000Y-116420000D01*
X214145000Y-116420000D01*
X214145000Y-114180000D01*
%TO.C,D10*%
X175395000Y-153400000D02*
X176045000Y-153400000D01*
X176645000Y-152280000D02*
X176645000Y-154520000D01*
X176765000Y-152280000D02*
X176765000Y-154520000D01*
X176885000Y-152280000D02*
X176885000Y-154520000D01*
X180935000Y-153400000D02*
X180285000Y-153400000D01*
X176045000Y-152280000D02*
X180285000Y-152280000D01*
X180285000Y-154520000D01*
X176045000Y-154520000D01*
X176045000Y-152280000D01*
%TO.C,D3*%
X213495000Y-96250000D02*
X214145000Y-96250000D01*
X214745000Y-95130000D02*
X214745000Y-97370000D01*
X214865000Y-95130000D02*
X214865000Y-97370000D01*
X214985000Y-95130000D02*
X214985000Y-97370000D01*
X219035000Y-96250000D02*
X218385000Y-96250000D01*
X214145000Y-95130000D02*
X218385000Y-95130000D01*
X218385000Y-97370000D01*
X214145000Y-97370000D01*
X214145000Y-95130000D01*
%TO.C,D1*%
X175395000Y-96250000D02*
X176045000Y-96250000D01*
X176645000Y-95130000D02*
X176645000Y-97370000D01*
X176765000Y-95130000D02*
X176765000Y-97370000D01*
X176885000Y-95130000D02*
X176885000Y-97370000D01*
X180935000Y-96250000D02*
X180285000Y-96250000D01*
X176045000Y-95130000D02*
X180285000Y-95130000D01*
X180285000Y-97370000D01*
X176045000Y-97370000D01*
X176045000Y-95130000D01*
%TO.C,SW4*%
X172291250Y-98790000D02*
X186261250Y-98790000D01*
X172291250Y-112760000D02*
X172291250Y-98790000D01*
X186261250Y-98790000D02*
X186261250Y-112760000D01*
X186261250Y-112760000D02*
X172291250Y-112760000D01*
%TO.C,SW3*%
X210391250Y-79740000D02*
X224361250Y-79740000D01*
X210391250Y-93710000D02*
X210391250Y-79740000D01*
X224361250Y-79740000D02*
X224361250Y-93710000D01*
X224361250Y-93710000D02*
X210391250Y-93710000D01*
%TO.C,D4*%
X175395000Y-115300000D02*
X176045000Y-115300000D01*
X176645000Y-114180000D02*
X176645000Y-116420000D01*
X176765000Y-114180000D02*
X176765000Y-116420000D01*
X176885000Y-114180000D02*
X176885000Y-116420000D01*
X180935000Y-115300000D02*
X180285000Y-115300000D01*
X176045000Y-114180000D02*
X180285000Y-114180000D01*
X180285000Y-116420000D01*
X176045000Y-116420000D01*
X176045000Y-114180000D01*
%TO.C,D11*%
X194445000Y-153400000D02*
X195095000Y-153400000D01*
X195695000Y-152280000D02*
X195695000Y-154520000D01*
X195815000Y-152280000D02*
X195815000Y-154520000D01*
X195935000Y-152280000D02*
X195935000Y-154520000D01*
X199985000Y-153400000D02*
X199335000Y-153400000D01*
X195095000Y-152280000D02*
X199335000Y-152280000D01*
X199335000Y-154520000D01*
X195095000Y-154520000D01*
X195095000Y-152280000D01*
%TO.C,SW5*%
X191341250Y-98790000D02*
X205311250Y-98790000D01*
X191341250Y-112760000D02*
X191341250Y-98790000D01*
X205311250Y-98790000D02*
X205311250Y-112760000D01*
X205311250Y-112760000D02*
X191341250Y-112760000D01*
%TO.C,SW11*%
X191341250Y-136890000D02*
X205311250Y-136890000D01*
X191341250Y-150860000D02*
X191341250Y-136890000D01*
X205311250Y-136890000D02*
X205311250Y-150860000D01*
X205311250Y-150860000D02*
X191341250Y-150860000D01*
%TO.C,SW2*%
X191341250Y-79740000D02*
X205311250Y-79740000D01*
X191341250Y-93710000D02*
X191341250Y-79740000D01*
X205311250Y-79740000D02*
X205311250Y-93710000D01*
X205311250Y-93710000D02*
X191341250Y-93710000D01*
%TO.C,SW13*%
X203450000Y-60900000D02*
X204050000Y-60900000D01*
X203750000Y-61200000D02*
X203450000Y-60900000D01*
X204050000Y-60900000D02*
X203750000Y-61200000D01*
X205150000Y-59100000D02*
X205150000Y-70900000D01*
X209250000Y-59100000D02*
X205150000Y-59100000D01*
X209250000Y-70900000D02*
X205150000Y-70900000D01*
X210750000Y-65000000D02*
X211750000Y-65000000D01*
X211250000Y-64500000D02*
X211250000Y-65500000D01*
X213250000Y-59100000D02*
X217350000Y-59100000D01*
X217350000Y-59100000D02*
X217350000Y-61500000D01*
X217350000Y-63700000D02*
X217350000Y-66300000D01*
X217350000Y-68500000D02*
X217350000Y-70900000D01*
X217350000Y-70900000D02*
X213250000Y-70900000D01*
X214250000Y-65000000D02*
G75*
G02*
X208250000Y-65000000I-3000000J0D01*
G01*
X208250000Y-65000000D02*
G75*
G02*
X214250000Y-65000000I3000000J0D01*
G01*
%TO.C,D13*%
X220450000Y-61845000D02*
X220450000Y-65845000D01*
X220450000Y-61845000D02*
X226050000Y-61845000D01*
X220450000Y-65845000D02*
X225450000Y-65845000D01*
X226050000Y-65245000D02*
X225450000Y-65845000D01*
X226050000Y-65245000D02*
X226050000Y-61845000D01*
D13*
%TO.C,U1*%
X180490000Y-75129000D02*
X180490000Y-57984000D01*
X182395000Y-77034000D02*
X196365000Y-77034000D01*
X184885000Y-56079000D02*
X184888728Y-55168728D01*
X185388728Y-54669000D02*
X193384000Y-54669000D01*
X193884000Y-55169000D02*
X193884000Y-56079000D01*
D14*
X196365000Y-56079000D02*
X182395000Y-56079000D01*
D13*
X196365000Y-56079000D02*
X182395000Y-56079000D01*
X198270000Y-75129000D02*
X198270000Y-57984000D01*
X180490000Y-57984000D02*
G75*
G02*
X182395000Y-56079000I1905001J-1D01*
G01*
X182395000Y-77034000D02*
G75*
G02*
X180490000Y-75129000I1J1905001D01*
G01*
X184888728Y-55168728D02*
G75*
G02*
X185388728Y-54669001I500018J-291D01*
G01*
X193384000Y-54669000D02*
G75*
G02*
X193884000Y-55169000I0J-500000D01*
G01*
X196365000Y-56079000D02*
G75*
G02*
X198270000Y-57984000I0J-1905000D01*
G01*
X198270000Y-75129000D02*
G75*
G02*
X196365000Y-77034000I-1905000J0D01*
G01*
D15*
X180682000Y-56320000D02*
G75*
G02*
X180178000Y-56320000I-252000J0D01*
G01*
X180178000Y-56320000D02*
G75*
G02*
X180682000Y-56320000I252000J0D01*
G01*
X181825000Y-57200000D02*
G75*
G02*
X181321000Y-57200000I-252000J0D01*
G01*
X181321000Y-57200000D02*
G75*
G02*
X181825000Y-57200000I252000J0D01*
G01*
D12*
%TO.C,SW8*%
X191341250Y-117840000D02*
X205311250Y-117840000D01*
X191341250Y-131810000D02*
X191341250Y-117840000D01*
X205311250Y-117840000D02*
X205311250Y-131810000D01*
X205311250Y-131810000D02*
X191341250Y-131810000D01*
%TO.C,SW10*%
X172291250Y-136890000D02*
X186261250Y-136890000D01*
X172291250Y-150860000D02*
X172291250Y-136890000D01*
X186261250Y-136890000D02*
X186261250Y-150860000D01*
X186261250Y-150860000D02*
X172291250Y-150860000D01*
%TO.C,D12*%
X213495000Y-153400000D02*
X214145000Y-153400000D01*
X214745000Y-152280000D02*
X214745000Y-154520000D01*
X214865000Y-152280000D02*
X214865000Y-154520000D01*
X214985000Y-152280000D02*
X214985000Y-154520000D01*
X219035000Y-153400000D02*
X218385000Y-153400000D01*
X214145000Y-152280000D02*
X218385000Y-152280000D01*
X218385000Y-154520000D01*
X214145000Y-154520000D01*
X214145000Y-152280000D01*
%TO.C,SW6*%
X210391250Y-98790000D02*
X224361250Y-98790000D01*
X210391250Y-112760000D02*
X210391250Y-98790000D01*
X224361250Y-98790000D02*
X224361250Y-112760000D01*
X224361250Y-112760000D02*
X210391250Y-112760000D01*
%TO.C,D5*%
X194445000Y-115300000D02*
X195095000Y-115300000D01*
X195695000Y-114180000D02*
X195695000Y-116420000D01*
X195815000Y-114180000D02*
X195815000Y-116420000D01*
X195935000Y-114180000D02*
X195935000Y-116420000D01*
X199985000Y-115300000D02*
X199335000Y-115300000D01*
X195095000Y-114180000D02*
X199335000Y-114180000D01*
X199335000Y-116420000D01*
X195095000Y-116420000D01*
X195095000Y-114180000D01*
%TO.C,D14*%
X170580000Y-62140000D02*
X170580000Y-66140000D01*
X170580000Y-62140000D02*
X176180000Y-62140000D01*
X170580000Y-66140000D02*
X175580000Y-66140000D01*
X176180000Y-65540000D02*
X175580000Y-66140000D01*
X176180000Y-65540000D02*
X176180000Y-62140000D01*
%TO.C,SW7*%
X172291250Y-117840000D02*
X186261250Y-117840000D01*
X172291250Y-131810000D02*
X172291250Y-117840000D01*
X186261250Y-117840000D02*
X186261250Y-131810000D01*
X186261250Y-131810000D02*
X172291250Y-131810000D01*
%TO.C,D8*%
X194445000Y-134350000D02*
X195095000Y-134350000D01*
X195695000Y-133230000D02*
X195695000Y-135470000D01*
X195815000Y-133230000D02*
X195815000Y-135470000D01*
X195935000Y-133230000D02*
X195935000Y-135470000D01*
X199985000Y-134350000D02*
X199335000Y-134350000D01*
X195095000Y-133230000D02*
X199335000Y-133230000D01*
X199335000Y-135470000D01*
X195095000Y-135470000D01*
X195095000Y-133230000D01*
%TO.C,D2*%
X194445000Y-96250000D02*
X195095000Y-96250000D01*
X195695000Y-95130000D02*
X195695000Y-97370000D01*
X195815000Y-95130000D02*
X195815000Y-97370000D01*
X195935000Y-95130000D02*
X195935000Y-97370000D01*
X199985000Y-96250000D02*
X199335000Y-96250000D01*
X195095000Y-95130000D02*
X199335000Y-95130000D01*
X199335000Y-97370000D01*
X195095000Y-97370000D01*
X195095000Y-95130000D01*
%TO.C,SW9*%
X210391250Y-117840000D02*
X224361250Y-117840000D01*
X210391250Y-131810000D02*
X210391250Y-117840000D01*
X224361250Y-117840000D02*
X224361250Y-131810000D01*
X224361250Y-131810000D02*
X210391250Y-131810000D01*
%TO.C,SW12*%
X210391250Y-136890000D02*
X224361250Y-136890000D01*
X210391250Y-150860000D02*
X210391250Y-136890000D01*
X224361250Y-136890000D02*
X224361250Y-150860000D01*
X224361250Y-150860000D02*
X210391250Y-150860000D01*
%TO.C,D7*%
X175395000Y-134350000D02*
X176045000Y-134350000D01*
X176645000Y-133230000D02*
X176645000Y-135470000D01*
X176765000Y-133230000D02*
X176765000Y-135470000D01*
X176885000Y-133230000D02*
X176885000Y-135470000D01*
X180935000Y-134350000D02*
X180285000Y-134350000D01*
X176045000Y-133230000D02*
X180285000Y-133230000D01*
X180285000Y-135470000D01*
X176045000Y-135470000D01*
X176045000Y-133230000D01*
%TD*%
M02*
