%TF.GenerationSoftware,KiCad,Pcbnew,9.0.6*%
%TF.CreationDate,2025-12-26T18:46:45+13:00*%
%TF.ProjectId,PCB,5043422e-6b69-4636-9164-5f7063625858,rev?*%
%TF.SameCoordinates,Original*%
%TF.FileFunction,Copper,L2,Bot*%
%TF.FilePolarity,Positive*%
%FSLAX46Y46*%
G04 Gerber Fmt 4.6, Leading zero omitted, Abs format (unit mm)*
G04 Created by KiCad (PCBNEW 9.0.6) date 2025-12-26 18:46:45*
%MOMM*%
%LPD*%
G01*
G04 APERTURE LIST*
G04 Aperture macros list*
%AMRoundRect*
0 Rectangle with rounded corners*
0 $1 Rounding radius*
0 $2 $3 $4 $5 $6 $7 $8 $9 X,Y pos of 4 corners*
0 Add a 4 corners polygon primitive as box body*
4,1,4,$2,$3,$4,$5,$6,$7,$8,$9,$2,$3,0*
0 Add four circle primitives for the rounded corners*
1,1,$1+$1,$2,$3*
1,1,$1+$1,$4,$5*
1,1,$1+$1,$6,$7*
1,1,$1+$1,$8,$9*
0 Add four rect primitives between the rounded corners*
20,1,$1+$1,$2,$3,$4,$5,0*
20,1,$1+$1,$4,$5,$6,$7,0*
20,1,$1+$1,$6,$7,$8,$9,0*
20,1,$1+$1,$8,$9,$2,$3,0*%
G04 Aperture macros list end*
%TA.AperFunction,ComponentPad*%
%ADD10RoundRect,0.250000X-0.550000X-0.550000X0.550000X-0.550000X0.550000X0.550000X-0.550000X0.550000X0*%
%TD*%
%TA.AperFunction,ComponentPad*%
%ADD11C,1.600000*%
%TD*%
%TA.AperFunction,ComponentPad*%
%ADD12C,2.200000*%
%TD*%
%TA.AperFunction,ComponentPad*%
%ADD13R,2.000000X2.000000*%
%TD*%
%TA.AperFunction,ComponentPad*%
%ADD14C,2.000000*%
%TD*%
%TA.AperFunction,ComponentPad*%
%ADD15R,3.200000X2.000000*%
%TD*%
%TA.AperFunction,ComponentPad*%
%ADD16C,1.524000*%
%TD*%
%TA.AperFunction,Conductor*%
%ADD17C,0.200000*%
%TD*%
G04 APERTURE END LIST*
D10*
%TO.P,D9,1,K*%
%TO.N,ROW2*%
X212455000Y-134350000D03*
D11*
%TO.P,D9,2,A*%
%TO.N,Net-(D9-A)*%
X220075000Y-134350000D03*
%TD*%
D12*
%TO.P,SW1,1,1*%
%TO.N,Net-(D1-A)*%
X181816250Y-81645000D03*
%TO.P,SW1,2,2*%
%TO.N,COL0*%
X175466250Y-84185000D03*
%TD*%
D10*
%TO.P,D6,1,K*%
%TO.N,ROW1*%
X212455000Y-115300000D03*
D11*
%TO.P,D6,2,A*%
%TO.N,Net-(D6-A)*%
X220075000Y-115300000D03*
%TD*%
D10*
%TO.P,D10,1,K*%
%TO.N,ROW3*%
X174355000Y-153400000D03*
D11*
%TO.P,D10,2,A*%
%TO.N,Net-(D10-A)*%
X181975000Y-153400000D03*
%TD*%
D10*
%TO.P,D3,1,K*%
%TO.N,ROW0*%
X212455000Y-96250000D03*
D11*
%TO.P,D3,2,A*%
%TO.N,Net-(D3-A)*%
X220075000Y-96250000D03*
%TD*%
D10*
%TO.P,D1,1,K*%
%TO.N,ROW0*%
X174355000Y-96250000D03*
D11*
%TO.P,D1,2,A*%
%TO.N,Net-(D1-A)*%
X181975000Y-96250000D03*
%TD*%
D12*
%TO.P,SW4,1,1*%
%TO.N,Net-(D4-A)*%
X181816250Y-100695000D03*
%TO.P,SW4,2,2*%
%TO.N,COL0*%
X175466250Y-103235000D03*
%TD*%
%TO.P,SW3,1,1*%
%TO.N,Net-(D3-A)*%
X219916250Y-81645000D03*
%TO.P,SW3,2,2*%
%TO.N,COL2*%
X213566250Y-84185000D03*
%TD*%
D10*
%TO.P,D4,1,K*%
%TO.N,ROW1*%
X174355000Y-115300000D03*
D11*
%TO.P,D4,2,A*%
%TO.N,Net-(D4-A)*%
X181975000Y-115300000D03*
%TD*%
D10*
%TO.P,D11,1,K*%
%TO.N,ROW3*%
X193405000Y-153400000D03*
D11*
%TO.P,D11,2,A*%
%TO.N,Net-(D11-A)*%
X201025000Y-153400000D03*
%TD*%
D12*
%TO.P,SW5,1,1*%
%TO.N,Net-(D5-A)*%
X200866250Y-100695000D03*
%TO.P,SW5,2,2*%
%TO.N,COL1*%
X194516250Y-103235000D03*
%TD*%
%TO.P,SW11,1,1*%
%TO.N,Net-(D11-A)*%
X200866250Y-138795000D03*
%TO.P,SW11,2,2*%
%TO.N,COL1*%
X194516250Y-141335000D03*
%TD*%
%TO.P,SW2,1,1*%
%TO.N,Net-(D2-A)*%
X200866250Y-81645000D03*
%TO.P,SW2,2,2*%
%TO.N,COL1*%
X194516250Y-84185000D03*
%TD*%
D13*
%TO.P,SW13,A,A*%
%TO.N,EC11A*%
X203750000Y-62500000D03*
D14*
%TO.P,SW13,B,B*%
%TO.N,EC11B*%
X203750000Y-67500000D03*
%TO.P,SW13,C,C*%
%TO.N,GND*%
X203750000Y-65000000D03*
D15*
%TO.P,SW13,MP*%
%TO.N,N/C*%
X211250000Y-59400000D03*
X211250000Y-70600000D03*
D14*
%TO.P,SW13,S1,S1*%
%TO.N,EC11C*%
X218250000Y-67500000D03*
%TO.P,SW13,S2,S2*%
%TO.N,GND*%
X218250000Y-62500000D03*
%TD*%
D16*
%TO.P,U1,1,GPIO26/ADC0/A0*%
%TO.N,ROW0*%
X181760000Y-59000000D03*
%TO.P,U1,2,GPIO27/ADC1/A1*%
%TO.N,ROW1*%
X181760000Y-61540000D03*
%TO.P,U1,3,GPIO28/ADC2/A2*%
%TO.N,ROW2*%
X181760000Y-64080000D03*
%TO.P,U1,4,GPIO29/ADC3/A3*%
%TO.N,ROW3*%
X181760000Y-66620000D03*
%TO.P,U1,5,GPIO6/SDA*%
%TO.N,EC11C*%
X181760000Y-69160000D03*
%TO.P,U1,6,GPIO7/SCL*%
%TO.N,EC11A*%
X181760000Y-71700000D03*
%TO.P,U1,7,GPIO0/TX*%
%TO.N,EC11B*%
X181760000Y-74240000D03*
%TO.P,U1,8,GPIO1/RX*%
%TO.N,LED*%
X197000000Y-74240000D03*
%TO.P,U1,9,GPIO2/SCK*%
%TO.N,COL2*%
X197000000Y-71700000D03*
%TO.P,U1,10,GPIO4/MISO*%
%TO.N,COL1*%
X197000000Y-69160000D03*
%TO.P,U1,11,GPIO3/MOSI*%
%TO.N,COL0*%
X197000000Y-66620000D03*
%TO.P,U1,12,3V3*%
%TO.N,unconnected-(U1-3V3-Pad12)*%
X197000000Y-64080000D03*
%TO.P,U1,13,GND*%
%TO.N,GND*%
X197000000Y-61540000D03*
%TO.P,U1,14,VBUS*%
%TO.N,+5V*%
X197000000Y-59000000D03*
%TD*%
D12*
%TO.P,SW8,1,1*%
%TO.N,Net-(D8-A)*%
X200866250Y-119745000D03*
%TO.P,SW8,2,2*%
%TO.N,COL1*%
X194516250Y-122285000D03*
%TD*%
%TO.P,SW10,1,1*%
%TO.N,Net-(D10-A)*%
X181816250Y-138795000D03*
%TO.P,SW10,2,2*%
%TO.N,COL0*%
X175466250Y-141335000D03*
%TD*%
D10*
%TO.P,D12,1,K*%
%TO.N,ROW3*%
X212455000Y-153400000D03*
D11*
%TO.P,D12,2,A*%
%TO.N,Net-(D12-A)*%
X220075000Y-153400000D03*
%TD*%
D12*
%TO.P,SW6,1,1*%
%TO.N,Net-(D6-A)*%
X219916250Y-100695000D03*
%TO.P,SW6,2,2*%
%TO.N,COL2*%
X213566250Y-103235000D03*
%TD*%
D10*
%TO.P,D5,1,K*%
%TO.N,ROW1*%
X193405000Y-115300000D03*
D11*
%TO.P,D5,2,A*%
%TO.N,Net-(D5-A)*%
X201025000Y-115300000D03*
%TD*%
D12*
%TO.P,SW7,1,1*%
%TO.N,Net-(D7-A)*%
X181816250Y-119745000D03*
%TO.P,SW7,2,2*%
%TO.N,COL0*%
X175466250Y-122285000D03*
%TD*%
D10*
%TO.P,D8,1,K*%
%TO.N,ROW2*%
X193405000Y-134350000D03*
D11*
%TO.P,D8,2,A*%
%TO.N,Net-(D8-A)*%
X201025000Y-134350000D03*
%TD*%
D10*
%TO.P,D2,1,K*%
%TO.N,ROW0*%
X193405000Y-96250000D03*
D11*
%TO.P,D2,2,A*%
%TO.N,Net-(D2-A)*%
X201025000Y-96250000D03*
%TD*%
D12*
%TO.P,SW9,1,1*%
%TO.N,Net-(D9-A)*%
X219916250Y-119745000D03*
%TO.P,SW9,2,2*%
%TO.N,COL2*%
X213566250Y-122285000D03*
%TD*%
%TO.P,SW12,1,1*%
%TO.N,Net-(D12-A)*%
X219916250Y-138795000D03*
%TO.P,SW12,2,2*%
%TO.N,COL2*%
X213566250Y-141335000D03*
%TD*%
D10*
%TO.P,D7,1,K*%
%TO.N,ROW2*%
X174355000Y-134350000D03*
D11*
%TO.P,D7,2,A*%
%TO.N,Net-(D7-A)*%
X181975000Y-134350000D03*
%TD*%
D17*
%TO.N,ROW0*%
X172995250Y-70354750D02*
X177793000Y-65557000D01*
X172995250Y-94890250D02*
X172995250Y-70354750D01*
X182962750Y-64380560D02*
X182962750Y-60202750D01*
X177793000Y-65557000D02*
X181786310Y-65557000D01*
X174355000Y-96250000D02*
X172995250Y-94890250D01*
X181786310Y-65557000D02*
X182962750Y-64380560D01*
X182962750Y-60202750D02*
X181760000Y-59000000D01*
%TO.N,ROW1*%
X175140160Y-135451000D02*
X175456000Y-135135160D01*
X175456000Y-133564840D02*
X171491000Y-129599840D01*
X175456000Y-135135160D02*
X175456000Y-133564840D01*
X170689000Y-68642250D02*
X170689000Y-132570160D01*
X170689000Y-132570160D02*
X173569840Y-135451000D01*
X173569840Y-135451000D02*
X175140160Y-135451000D01*
X171491000Y-118164000D02*
X174355000Y-115300000D01*
X181939060Y-61435500D02*
X181002850Y-61435500D01*
X170689000Y-68642250D02*
X177791250Y-61540000D01*
X171491000Y-129599840D02*
X171491000Y-118164000D01*
X177791250Y-61540000D02*
X181760000Y-61540000D01*
%TO.N,ROW2*%
X171090000Y-117997900D02*
X171090000Y-129765940D01*
X171750000Y-130425940D02*
X171750000Y-131745000D01*
X211354000Y-135451000D02*
X212455000Y-134350000D01*
X171090000Y-129765940D02*
X171750000Y-130425940D01*
X194506000Y-135451000D02*
X211354000Y-135451000D01*
X171750000Y-117337900D02*
X171090000Y-117997900D01*
X171750000Y-70600000D02*
X171750000Y-117337900D01*
X171750000Y-131745000D02*
X174355000Y-134350000D01*
X193405000Y-134350000D02*
X194506000Y-135451000D01*
X181760000Y-64080000D02*
X178270000Y-64080000D01*
X178270000Y-64080000D02*
X171750000Y-70600000D01*
%TO.N,COL0*%
X193031250Y-66620000D02*
X197000000Y-66620000D01*
X175466250Y-84185000D02*
X193031250Y-66620000D01*
X175466250Y-122285000D02*
X175466250Y-103235000D01*
%TO.N,COL1*%
X194516250Y-84185000D02*
X194516250Y-71643750D01*
X194516250Y-103235000D02*
X194516250Y-122285000D01*
X194516250Y-71643750D02*
X197000000Y-69160000D01*
%TO.N,COL2*%
X213566250Y-103235000D02*
X213566250Y-122285000D01*
X209624750Y-84185000D02*
X197139750Y-71700000D01*
X213566250Y-84185000D02*
X209624750Y-84185000D01*
%TO.N,ROW3*%
X177791250Y-66620000D02*
X174065250Y-70346000D01*
X181760000Y-66620000D02*
X177791250Y-66620000D01*
X192304000Y-152299000D02*
X193405000Y-153400000D01*
X194506000Y-152299000D02*
X211354000Y-152299000D01*
X174355000Y-153400000D02*
X176867250Y-150887750D01*
X193405000Y-153400000D02*
X194506000Y-152299000D01*
X175456000Y-152299000D02*
X192304000Y-152299000D01*
X174065250Y-84785250D02*
X176867250Y-87587250D01*
X174065250Y-70346000D02*
X174065250Y-84785250D01*
X176867250Y-87587250D02*
X176867250Y-150887750D01*
X211354000Y-152299000D02*
X212455000Y-153400000D01*
X174355000Y-153400000D02*
X175456000Y-152299000D01*
%TO.N,EC11A*%
X187903000Y-65557000D02*
X181760000Y-71700000D01*
X200693000Y-65557000D02*
X187903000Y-65557000D01*
X203750000Y-62500000D02*
X200693000Y-65557000D01*
%TD*%
M02*
