M48
; DRILL file {KiCad 9.0.6} date 2025-12-26T18:46:39+1300
; FORMAT={-:-/ absolute / metric / decimal}
; #@! TF.CreationDate,2025-12-26T18:46:39+13:00
; #@! TF.GenerationSoftware,Kicad,Pcbnew,9.0.6
; #@! TF.FileFunction,NonPlated,1,2,NPTH
FMAT,2
METRIC
; #@! TA.AperFunction,NonPlated,NPTH,ComponentDrill
T1C1.700
; #@! TA.AperFunction,NonPlated,NPTH,ComponentDrill
T2C4.000
%
G90
G05
T1
X174.196Y-86.725
X174.196Y-105.775
X174.196Y-124.825
X174.196Y-143.875
X184.356Y-86.725
X184.356Y-105.775
X184.356Y-124.825
X184.356Y-143.875
X193.246Y-86.725
X193.246Y-105.775
X193.246Y-124.825
X193.246Y-143.875
X203.406Y-86.725
X203.406Y-105.775
X203.406Y-124.825
X203.406Y-143.875
X212.296Y-86.725
X212.296Y-105.775
X212.296Y-124.825
X212.296Y-143.875
X222.456Y-86.725
X222.456Y-105.775
X222.456Y-124.825
X222.456Y-143.875
T2
X179.276Y-86.725
X179.276Y-105.775
X179.276Y-124.825
X179.276Y-143.875
X198.326Y-86.725
X198.326Y-105.775
X198.326Y-124.825
X198.326Y-143.875
X217.376Y-86.725
X217.376Y-105.775
X217.376Y-124.825
X217.376Y-143.875
M30
