M48
; DRILL file {KiCad 9.0.6} date 2025-12-26T18:46:39+1300
; FORMAT={-:-/ absolute / metric / decimal}
; #@! TF.CreationDate,2025-12-26T18:46:39+13:00
; #@! TF.GenerationSoftware,Kicad,Pcbnew,9.0.6
; #@! TF.FileFunction,Plated,1,2,PTH
FMAT,2
METRIC
; #@! TA.AperFunction,Plated,PTH,ComponentDrill
T1C0.800
; #@! TA.AperFunction,Plated,PTH,ComponentDrill
T2C0.889
; #@! TA.AperFunction,Plated,PTH,ComponentDrill
T3C1.000
; #@! TA.AperFunction,Plated,PTH,ComponentDrill
T4C1.500
%
G90
G05
T1
X174.355Y-96.25
X174.355Y-115.3
X174.355Y-134.35
X174.355Y-153.4
X181.975Y-96.25
X181.975Y-115.3
X181.975Y-134.35
X181.975Y-153.4
X193.405Y-96.25
X193.405Y-115.3
X193.405Y-134.35
X193.405Y-153.4
X201.025Y-96.25
X201.025Y-115.3
X201.025Y-134.35
X201.025Y-153.4
X212.455Y-96.25
X212.455Y-115.3
X212.455Y-134.35
X212.455Y-153.4
X220.075Y-96.25
X220.075Y-115.3
X220.075Y-134.35
X220.075Y-153.4
T2
X181.76Y-59.0
X181.76Y-61.54
X181.76Y-64.08
X181.76Y-66.62
X181.76Y-69.16
X181.76Y-71.7
X181.76Y-74.24
X197.0Y-59.0
X197.0Y-61.54
X197.0Y-64.08
X197.0Y-66.62
X197.0Y-69.16
X197.0Y-71.7
X197.0Y-74.24
T3
X203.75Y-62.5
X203.75Y-65.0
X203.75Y-67.5
X218.25Y-62.5
X218.25Y-67.5
T4
X175.466Y-84.185
X175.466Y-103.235
X175.466Y-122.285
X175.466Y-141.335
X181.816Y-81.645
X181.816Y-100.695
X181.816Y-119.745
X181.816Y-138.795
X194.516Y-84.185
X194.516Y-103.235
X194.516Y-122.285
X194.516Y-141.335
X200.866Y-81.645
X200.866Y-100.695
X200.866Y-119.745
X200.866Y-138.795
X213.566Y-84.185
X213.566Y-103.235
X213.566Y-122.285
X213.566Y-141.335
X219.916Y-81.645
X219.916Y-100.695
X219.916Y-119.745
X219.916Y-138.795
T4
G00X210.6Y-59.4
M15
G01X211.9Y-59.4
M16
G05
G00X210.6Y-70.6
M15
G01X211.9Y-70.6
M16
G05
M30
