%TF.GenerationSoftware,KiCad,Pcbnew,9.0.6*%
%TF.CreationDate,2025-12-26T18:46:45+13:00*%
%TF.ProjectId,PCB,5043422e-6b69-4636-9164-5f7063625858,rev?*%
%TF.SameCoordinates,Original*%
%TF.FileFunction,Soldermask,Top*%
%TF.FilePolarity,Negative*%
%FSLAX46Y46*%
G04 Gerber Fmt 4.6, Leading zero omitted, Abs format (unit mm)*
G04 Created by KiCad (PCBNEW 9.0.6) date 2025-12-26 18:46:45*
%MOMM*%
%LPD*%
G01*
G04 APERTURE LIST*
G04 Aperture macros list*
%AMRoundRect*
0 Rectangle with rounded corners*
0 $1 Rounding radius*
0 $2 $3 $4 $5 $6 $7 $8 $9 X,Y pos of 4 corners*
0 Add a 4 corners polygon primitive as box body*
4,1,4,$2,$3,$4,$5,$6,$7,$8,$9,$2,$3,0*
0 Add four circle primitives for the rounded corners*
1,1,$1+$1,$2,$3*
1,1,$1+$1,$4,$5*
1,1,$1+$1,$6,$7*
1,1,$1+$1,$8,$9*
0 Add four rect primitives between the rounded corners*
20,1,$1+$1,$2,$3,$4,$5,0*
20,1,$1+$1,$4,$5,$6,$7,0*
20,1,$1+$1,$6,$7,$8,$9,0*
20,1,$1+$1,$8,$9,$2,$3,0*%
G04 Aperture macros list end*
%ADD10RoundRect,0.250000X-0.550000X-0.550000X0.550000X-0.550000X0.550000X0.550000X-0.550000X0.550000X0*%
%ADD11C,1.600000*%
%ADD12C,1.700000*%
%ADD13C,4.000000*%
%ADD14C,2.200000*%
%ADD15R,2.000000X2.000000*%
%ADD16C,2.000000*%
%ADD17R,3.200000X2.000000*%
%ADD18R,1.600000X0.850000*%
%ADD19RoundRect,0.152400X1.063600X0.609600X-1.063600X0.609600X-1.063600X-0.609600X1.063600X-0.609600X0*%
%ADD20C,1.524000*%
%ADD21RoundRect,0.152400X-1.063600X-0.609600X1.063600X-0.609600X1.063600X0.609600X-1.063600X0.609600X0*%
G04 APERTURE END LIST*
D10*
%TO.C,D9*%
X212455000Y-134350000D03*
D11*
X220075000Y-134350000D03*
%TD*%
D12*
%TO.C,SW1*%
X174196250Y-86725000D03*
D13*
X179276250Y-86725000D03*
D12*
X184356250Y-86725000D03*
D14*
X181816250Y-81645000D03*
X175466250Y-84185000D03*
%TD*%
D10*
%TO.C,D6*%
X212455000Y-115300000D03*
D11*
X220075000Y-115300000D03*
%TD*%
D10*
%TO.C,D10*%
X174355000Y-153400000D03*
D11*
X181975000Y-153400000D03*
%TD*%
D10*
%TO.C,D3*%
X212455000Y-96250000D03*
D11*
X220075000Y-96250000D03*
%TD*%
D10*
%TO.C,D1*%
X174355000Y-96250000D03*
D11*
X181975000Y-96250000D03*
%TD*%
D12*
%TO.C,SW4*%
X174196250Y-105775000D03*
D13*
X179276250Y-105775000D03*
D12*
X184356250Y-105775000D03*
D14*
X181816250Y-100695000D03*
X175466250Y-103235000D03*
%TD*%
D12*
%TO.C,SW3*%
X212296250Y-86725000D03*
D13*
X217376250Y-86725000D03*
D12*
X222456250Y-86725000D03*
D14*
X219916250Y-81645000D03*
X213566250Y-84185000D03*
%TD*%
D10*
%TO.C,D4*%
X174355000Y-115300000D03*
D11*
X181975000Y-115300000D03*
%TD*%
D10*
%TO.C,D11*%
X193405000Y-153400000D03*
D11*
X201025000Y-153400000D03*
%TD*%
D12*
%TO.C,SW5*%
X193246250Y-105775000D03*
D13*
X198326250Y-105775000D03*
D12*
X203406250Y-105775000D03*
D14*
X200866250Y-100695000D03*
X194516250Y-103235000D03*
%TD*%
D12*
%TO.C,SW11*%
X193246250Y-143875000D03*
D13*
X198326250Y-143875000D03*
D12*
X203406250Y-143875000D03*
D14*
X200866250Y-138795000D03*
X194516250Y-141335000D03*
%TD*%
D12*
%TO.C,SW2*%
X193246250Y-86725000D03*
D13*
X198326250Y-86725000D03*
D12*
X203406250Y-86725000D03*
D14*
X200866250Y-81645000D03*
X194516250Y-84185000D03*
%TD*%
D15*
%TO.C,SW13*%
X203750000Y-62500000D03*
D16*
X203750000Y-67500000D03*
X203750000Y-65000000D03*
D17*
X211250000Y-59400000D03*
X211250000Y-70600000D03*
D16*
X218250000Y-67500000D03*
X218250000Y-62500000D03*
%TD*%
D18*
%TO.C,D13*%
X221500000Y-62970000D03*
X221500000Y-64720000D03*
X225000000Y-64720000D03*
X225000000Y-62970000D03*
%TD*%
D19*
%TO.C,U1*%
X180925000Y-59000000D03*
D20*
X181760000Y-59000000D03*
D19*
X180925000Y-61540000D03*
D20*
X181760000Y-61540000D03*
D19*
X180925000Y-64080000D03*
D20*
X181760000Y-64080000D03*
D19*
X180925000Y-66620000D03*
D20*
X181760000Y-66620000D03*
D19*
X180925000Y-69160000D03*
D20*
X181760000Y-69160000D03*
D19*
X180925000Y-71700000D03*
D20*
X181760000Y-71700000D03*
D19*
X180925000Y-74240000D03*
D20*
X181760000Y-74240000D03*
X197000000Y-74240000D03*
D21*
X197835000Y-74240000D03*
D20*
X197000000Y-71700000D03*
D21*
X197835000Y-71700000D03*
D20*
X197000000Y-69160000D03*
D21*
X197835000Y-69160000D03*
D20*
X197000000Y-66620000D03*
D21*
X197835000Y-66620000D03*
D20*
X197000000Y-64080000D03*
D21*
X197835000Y-64080000D03*
D20*
X197000000Y-61540000D03*
D21*
X197835000Y-61540000D03*
D20*
X197000000Y-59000000D03*
D21*
X197835000Y-59000000D03*
%TD*%
D12*
%TO.C,SW8*%
X193246250Y-124825000D03*
D13*
X198326250Y-124825000D03*
D12*
X203406250Y-124825000D03*
D14*
X200866250Y-119745000D03*
X194516250Y-122285000D03*
%TD*%
D12*
%TO.C,SW10*%
X174196250Y-143875000D03*
D13*
X179276250Y-143875000D03*
D12*
X184356250Y-143875000D03*
D14*
X181816250Y-138795000D03*
X175466250Y-141335000D03*
%TD*%
D10*
%TO.C,D12*%
X212455000Y-153400000D03*
D11*
X220075000Y-153400000D03*
%TD*%
D12*
%TO.C,SW6*%
X212296250Y-105775000D03*
D13*
X217376250Y-105775000D03*
D12*
X222456250Y-105775000D03*
D14*
X219916250Y-100695000D03*
X213566250Y-103235000D03*
%TD*%
D10*
%TO.C,D5*%
X193405000Y-115300000D03*
D11*
X201025000Y-115300000D03*
%TD*%
D18*
%TO.C,D14*%
X171630000Y-63265000D03*
X171630000Y-65015000D03*
X175130000Y-65015000D03*
X175130000Y-63265000D03*
%TD*%
D12*
%TO.C,SW7*%
X174196250Y-124825000D03*
D13*
X179276250Y-124825000D03*
D12*
X184356250Y-124825000D03*
D14*
X181816250Y-119745000D03*
X175466250Y-122285000D03*
%TD*%
D10*
%TO.C,D8*%
X193405000Y-134350000D03*
D11*
X201025000Y-134350000D03*
%TD*%
D10*
%TO.C,D2*%
X193405000Y-96250000D03*
D11*
X201025000Y-96250000D03*
%TD*%
D12*
%TO.C,SW9*%
X212296250Y-124825000D03*
D13*
X217376250Y-124825000D03*
D12*
X222456250Y-124825000D03*
D14*
X219916250Y-119745000D03*
X213566250Y-122285000D03*
%TD*%
D12*
%TO.C,SW12*%
X212296250Y-143875000D03*
D13*
X217376250Y-143875000D03*
D12*
X222456250Y-143875000D03*
D14*
X219916250Y-138795000D03*
X213566250Y-141335000D03*
%TD*%
D10*
%TO.C,D7*%
X174355000Y-134350000D03*
D11*
X181975000Y-134350000D03*
%TD*%
M02*
