%TF.GenerationSoftware,KiCad,Pcbnew,9.0.6*%
%TF.CreationDate,2025-12-26T18:46:45+13:00*%
%TF.ProjectId,PCB,5043422e-6b69-4636-9164-5f7063625858,rev?*%
%TF.SameCoordinates,Original*%
%TF.FileFunction,Copper,L1,Top*%
%TF.FilePolarity,Positive*%
%FSLAX46Y46*%
G04 Gerber Fmt 4.6, Leading zero omitted, Abs format (unit mm)*
G04 Created by KiCad (PCBNEW 9.0.6) date 2025-12-26 18:46:45*
%MOMM*%
%LPD*%
G01*
G04 APERTURE LIST*
G04 Aperture macros list*
%AMRoundRect*
0 Rectangle with rounded corners*
0 $1 Rounding radius*
0 $2 $3 $4 $5 $6 $7 $8 $9 X,Y pos of 4 corners*
0 Add a 4 corners polygon primitive as box body*
4,1,4,$2,$3,$4,$5,$6,$7,$8,$9,$2,$3,0*
0 Add four circle primitives for the rounded corners*
1,1,$1+$1,$2,$3*
1,1,$1+$1,$4,$5*
1,1,$1+$1,$6,$7*
1,1,$1+$1,$8,$9*
0 Add four rect primitives between the rounded corners*
20,1,$1+$1,$2,$3,$4,$5,0*
20,1,$1+$1,$4,$5,$6,$7,0*
20,1,$1+$1,$6,$7,$8,$9,0*
20,1,$1+$1,$8,$9,$2,$3,0*%
G04 Aperture macros list end*
%TA.AperFunction,ComponentPad*%
%ADD10RoundRect,0.250000X-0.550000X-0.550000X0.550000X-0.550000X0.550000X0.550000X-0.550000X0.550000X0*%
%TD*%
%TA.AperFunction,ComponentPad*%
%ADD11C,1.600000*%
%TD*%
%TA.AperFunction,ComponentPad*%
%ADD12C,2.200000*%
%TD*%
%TA.AperFunction,ComponentPad*%
%ADD13R,2.000000X2.000000*%
%TD*%
%TA.AperFunction,ComponentPad*%
%ADD14C,2.000000*%
%TD*%
%TA.AperFunction,ComponentPad*%
%ADD15R,3.200000X2.000000*%
%TD*%
%TA.AperFunction,SMDPad,CuDef*%
%ADD16R,1.600000X0.850000*%
%TD*%
%TA.AperFunction,SMDPad,CuDef*%
%ADD17RoundRect,0.152400X1.063600X0.609600X-1.063600X0.609600X-1.063600X-0.609600X1.063600X-0.609600X0*%
%TD*%
%TA.AperFunction,ComponentPad*%
%ADD18C,1.524000*%
%TD*%
%TA.AperFunction,SMDPad,CuDef*%
%ADD19RoundRect,0.152400X-1.063600X-0.609600X1.063600X-0.609600X1.063600X0.609600X-1.063600X0.609600X0*%
%TD*%
%TA.AperFunction,Conductor*%
%ADD20C,0.200000*%
%TD*%
G04 APERTURE END LIST*
D10*
%TO.P,D9,1,K*%
%TO.N,ROW2*%
X212455000Y-134350000D03*
D11*
%TO.P,D9,2,A*%
%TO.N,Net-(D9-A)*%
X220075000Y-134350000D03*
%TD*%
D12*
%TO.P,SW1,1,1*%
%TO.N,Net-(D1-A)*%
X181816250Y-81645000D03*
%TO.P,SW1,2,2*%
%TO.N,COL0*%
X175466250Y-84185000D03*
%TD*%
D10*
%TO.P,D6,1,K*%
%TO.N,ROW1*%
X212455000Y-115300000D03*
D11*
%TO.P,D6,2,A*%
%TO.N,Net-(D6-A)*%
X220075000Y-115300000D03*
%TD*%
D10*
%TO.P,D10,1,K*%
%TO.N,ROW3*%
X174355000Y-153400000D03*
D11*
%TO.P,D10,2,A*%
%TO.N,Net-(D10-A)*%
X181975000Y-153400000D03*
%TD*%
D10*
%TO.P,D3,1,K*%
%TO.N,ROW0*%
X212455000Y-96250000D03*
D11*
%TO.P,D3,2,A*%
%TO.N,Net-(D3-A)*%
X220075000Y-96250000D03*
%TD*%
D10*
%TO.P,D1,1,K*%
%TO.N,ROW0*%
X174355000Y-96250000D03*
D11*
%TO.P,D1,2,A*%
%TO.N,Net-(D1-A)*%
X181975000Y-96250000D03*
%TD*%
D12*
%TO.P,SW4,1,1*%
%TO.N,Net-(D4-A)*%
X181816250Y-100695000D03*
%TO.P,SW4,2,2*%
%TO.N,COL0*%
X175466250Y-103235000D03*
%TD*%
%TO.P,SW3,1,1*%
%TO.N,Net-(D3-A)*%
X219916250Y-81645000D03*
%TO.P,SW3,2,2*%
%TO.N,COL2*%
X213566250Y-84185000D03*
%TD*%
D10*
%TO.P,D4,1,K*%
%TO.N,ROW1*%
X174355000Y-115300000D03*
D11*
%TO.P,D4,2,A*%
%TO.N,Net-(D4-A)*%
X181975000Y-115300000D03*
%TD*%
D10*
%TO.P,D11,1,K*%
%TO.N,ROW3*%
X193405000Y-153400000D03*
D11*
%TO.P,D11,2,A*%
%TO.N,Net-(D11-A)*%
X201025000Y-153400000D03*
%TD*%
D12*
%TO.P,SW5,1,1*%
%TO.N,Net-(D5-A)*%
X200866250Y-100695000D03*
%TO.P,SW5,2,2*%
%TO.N,COL1*%
X194516250Y-103235000D03*
%TD*%
%TO.P,SW11,1,1*%
%TO.N,Net-(D11-A)*%
X200866250Y-138795000D03*
%TO.P,SW11,2,2*%
%TO.N,COL1*%
X194516250Y-141335000D03*
%TD*%
%TO.P,SW2,1,1*%
%TO.N,Net-(D2-A)*%
X200866250Y-81645000D03*
%TO.P,SW2,2,2*%
%TO.N,COL1*%
X194516250Y-84185000D03*
%TD*%
D13*
%TO.P,SW13,A,A*%
%TO.N,EC11A*%
X203750000Y-62500000D03*
D14*
%TO.P,SW13,B,B*%
%TO.N,EC11B*%
X203750000Y-67500000D03*
%TO.P,SW13,C,C*%
%TO.N,GND*%
X203750000Y-65000000D03*
D15*
%TO.P,SW13,MP*%
%TO.N,N/C*%
X211250000Y-59400000D03*
X211250000Y-70600000D03*
D14*
%TO.P,SW13,S1,S1*%
%TO.N,EC11C*%
X218250000Y-67500000D03*
%TO.P,SW13,S2,S2*%
%TO.N,GND*%
X218250000Y-62500000D03*
%TD*%
D16*
%TO.P,D13,1,DOUT*%
%TO.N,Net-(D13-DOUT)*%
X221500000Y-62970000D03*
%TO.P,D13,2,VSS*%
%TO.N,GND*%
X221500000Y-64720000D03*
%TO.P,D13,3,DIN*%
%TO.N,LED*%
X225000000Y-64720000D03*
%TO.P,D13,4,VDD*%
%TO.N,+5V*%
X225000000Y-62970000D03*
%TD*%
D17*
%TO.P,U1,1,GPIO26/ADC0/A0*%
%TO.N,ROW0*%
X180925000Y-59000000D03*
D18*
X181760000Y-59000000D03*
D17*
%TO.P,U1,2,GPIO27/ADC1/A1*%
%TO.N,ROW1*%
X180925000Y-61540000D03*
D18*
X181760000Y-61540000D03*
D17*
%TO.P,U1,3,GPIO28/ADC2/A2*%
%TO.N,ROW2*%
X180925000Y-64080000D03*
D18*
X181760000Y-64080000D03*
D17*
%TO.P,U1,4,GPIO29/ADC3/A3*%
%TO.N,ROW3*%
X180925000Y-66620000D03*
D18*
X181760000Y-66620000D03*
D17*
%TO.P,U1,5,GPIO6/SDA*%
%TO.N,EC11C*%
X180925000Y-69160000D03*
D18*
X181760000Y-69160000D03*
D17*
%TO.P,U1,6,GPIO7/SCL*%
%TO.N,EC11A*%
X180925000Y-71700000D03*
D18*
X181760000Y-71700000D03*
D17*
%TO.P,U1,7,GPIO0/TX*%
%TO.N,EC11B*%
X180925000Y-74240000D03*
D18*
X181760000Y-74240000D03*
%TO.P,U1,8,GPIO1/RX*%
%TO.N,LED*%
X197000000Y-74240000D03*
D19*
X197835000Y-74240000D03*
D18*
%TO.P,U1,9,GPIO2/SCK*%
%TO.N,COL2*%
X197000000Y-71700000D03*
D19*
X197835000Y-71700000D03*
D18*
%TO.P,U1,10,GPIO4/MISO*%
%TO.N,COL1*%
X197000000Y-69160000D03*
D19*
X197835000Y-69160000D03*
D18*
%TO.P,U1,11,GPIO3/MOSI*%
%TO.N,COL0*%
X197000000Y-66620000D03*
D19*
X197835000Y-66620000D03*
D18*
%TO.P,U1,12,3V3*%
%TO.N,unconnected-(U1-3V3-Pad12)*%
X197000000Y-64080000D03*
D19*
X197835000Y-64080000D03*
D18*
%TO.P,U1,13,GND*%
%TO.N,GND*%
X197000000Y-61540000D03*
D19*
X197835000Y-61540000D03*
D18*
%TO.P,U1,14,VBUS*%
%TO.N,+5V*%
X197000000Y-59000000D03*
D19*
X197835000Y-59000000D03*
%TD*%
D12*
%TO.P,SW8,1,1*%
%TO.N,Net-(D8-A)*%
X200866250Y-119745000D03*
%TO.P,SW8,2,2*%
%TO.N,COL1*%
X194516250Y-122285000D03*
%TD*%
%TO.P,SW10,1,1*%
%TO.N,Net-(D10-A)*%
X181816250Y-138795000D03*
%TO.P,SW10,2,2*%
%TO.N,COL0*%
X175466250Y-141335000D03*
%TD*%
D10*
%TO.P,D12,1,K*%
%TO.N,ROW3*%
X212455000Y-153400000D03*
D11*
%TO.P,D12,2,A*%
%TO.N,Net-(D12-A)*%
X220075000Y-153400000D03*
%TD*%
D12*
%TO.P,SW6,1,1*%
%TO.N,Net-(D6-A)*%
X219916250Y-100695000D03*
%TO.P,SW6,2,2*%
%TO.N,COL2*%
X213566250Y-103235000D03*
%TD*%
D10*
%TO.P,D5,1,K*%
%TO.N,ROW1*%
X193405000Y-115300000D03*
D11*
%TO.P,D5,2,A*%
%TO.N,Net-(D5-A)*%
X201025000Y-115300000D03*
%TD*%
D16*
%TO.P,D14,1,DOUT*%
%TO.N,unconnected-(D14-DOUT-Pad1)*%
X171630000Y-63265000D03*
%TO.P,D14,2,VSS*%
%TO.N,GND*%
X171630000Y-65015000D03*
%TO.P,D14,3,DIN*%
%TO.N,Net-(D13-DOUT)*%
X175130000Y-65015000D03*
%TO.P,D14,4,VDD*%
%TO.N,+5V*%
X175130000Y-63265000D03*
%TD*%
D12*
%TO.P,SW7,1,1*%
%TO.N,Net-(D7-A)*%
X181816250Y-119745000D03*
%TO.P,SW7,2,2*%
%TO.N,COL0*%
X175466250Y-122285000D03*
%TD*%
D10*
%TO.P,D8,1,K*%
%TO.N,ROW2*%
X193405000Y-134350000D03*
D11*
%TO.P,D8,2,A*%
%TO.N,Net-(D8-A)*%
X201025000Y-134350000D03*
%TD*%
D10*
%TO.P,D2,1,K*%
%TO.N,ROW0*%
X193405000Y-96250000D03*
D11*
%TO.P,D2,2,A*%
%TO.N,Net-(D2-A)*%
X201025000Y-96250000D03*
%TD*%
D12*
%TO.P,SW9,1,1*%
%TO.N,Net-(D9-A)*%
X219916250Y-119745000D03*
%TO.P,SW9,2,2*%
%TO.N,COL2*%
X213566250Y-122285000D03*
%TD*%
%TO.P,SW12,1,1*%
%TO.N,Net-(D12-A)*%
X219916250Y-138795000D03*
%TO.P,SW12,2,2*%
%TO.N,COL2*%
X213566250Y-141335000D03*
%TD*%
D10*
%TO.P,D7,1,K*%
%TO.N,ROW2*%
X174355000Y-134350000D03*
D11*
%TO.P,D7,2,A*%
%TO.N,Net-(D7-A)*%
X181975000Y-134350000D03*
%TD*%
D20*
%TO.N,Net-(D1-A)*%
X181816250Y-81803750D02*
X181975000Y-81962500D01*
X181816250Y-81645000D02*
X181816250Y-81803750D01*
X181975000Y-81962500D02*
X181975000Y-96250000D01*
%TO.N,ROW0*%
X176046564Y-82784000D02*
X174885936Y-82784000D01*
X172995250Y-94890250D02*
X174355000Y-96250000D01*
X192304000Y-97351000D02*
X177623000Y-97351000D01*
X197298500Y-98631250D02*
X195917250Y-97250000D01*
X210073750Y-98631250D02*
X197298500Y-98631250D01*
X193935936Y-82784000D02*
X192045250Y-84674686D01*
X192045250Y-84674686D02*
X192045250Y-94890250D01*
X195917250Y-97250000D02*
X195917250Y-83604686D01*
X177623000Y-97351000D02*
X176867250Y-96595250D01*
X176867250Y-96595250D02*
X176867250Y-83604686D01*
X195917250Y-83604686D02*
X195096564Y-82784000D01*
X192045250Y-94890250D02*
X193405000Y-96250000D01*
X174885936Y-82784000D02*
X172995250Y-84674686D01*
X193405000Y-96250000D02*
X192304000Y-97351000D01*
X195096564Y-82784000D02*
X193935936Y-82784000D01*
X176867250Y-83604686D02*
X176046564Y-82784000D01*
X212455000Y-96250000D02*
X210073750Y-98631250D01*
X172995250Y-84674686D02*
X172995250Y-94890250D01*
%TO.N,Net-(D2-A)*%
X200866250Y-96091250D02*
X201025000Y-96250000D01*
X200866250Y-81645000D02*
X200866250Y-96091250D01*
%TO.N,Net-(D3-A)*%
X220075000Y-96250000D02*
X220075000Y-81803750D01*
X220075000Y-81803750D02*
X219916250Y-81645000D01*
%TO.N,ROW1*%
X193405000Y-115300000D02*
X192304000Y-116401000D01*
X212455000Y-115300000D02*
X211354000Y-116401000D01*
X196018250Y-116401000D02*
X194917250Y-115300000D01*
X175867250Y-115300000D02*
X174355000Y-115300000D01*
X194917250Y-115300000D02*
X193405000Y-115300000D01*
X175867250Y-116336000D02*
X175867250Y-115300000D01*
X211354000Y-116401000D02*
X196018250Y-116401000D01*
X175932250Y-116401000D02*
X175867250Y-116336000D01*
X192304000Y-116401000D02*
X175932250Y-116401000D01*
%TO.N,Net-(D4-A)*%
X181816250Y-115141250D02*
X181975000Y-115300000D01*
X181816250Y-100695000D02*
X181816250Y-115141250D01*
%TO.N,Net-(D5-A)*%
X200866250Y-100695000D02*
X200866250Y-115141250D01*
X200866250Y-115141250D02*
X201025000Y-115300000D01*
%TO.N,Net-(D6-A)*%
X220075000Y-100853750D02*
X219916250Y-100695000D01*
X220075000Y-115300000D02*
X220075000Y-100853750D01*
%TO.N,ROW2*%
X174355000Y-134350000D02*
X174065250Y-134639750D01*
X184279936Y-134350000D02*
X193405000Y-134350000D01*
X176867250Y-141762686D02*
X184279936Y-134350000D01*
X176867250Y-141915314D02*
X176867250Y-141762686D01*
X193115250Y-134639750D02*
X193405000Y-134350000D01*
X174065250Y-141915314D02*
X174885936Y-142736000D01*
X174065250Y-134639750D02*
X174065250Y-141915314D01*
X174885936Y-142736000D02*
X176046564Y-142736000D01*
X176046564Y-142736000D02*
X176867250Y-141915314D01*
%TO.N,Net-(D7-A)*%
X181816250Y-119745000D02*
X181816250Y-134191250D01*
X181816250Y-134191250D02*
X181975000Y-134350000D01*
%TO.N,Net-(D8-A)*%
X200866250Y-119745000D02*
X200866250Y-134191250D01*
X200866250Y-134191250D02*
X201025000Y-134350000D01*
%TO.N,Net-(D9-A)*%
X219916250Y-119745000D02*
X219916250Y-134191250D01*
X219916250Y-134191250D02*
X220075000Y-134350000D01*
%TO.N,COL0*%
X175466250Y-122285000D02*
X175466250Y-141335000D01*
X175466250Y-84185000D02*
X175466250Y-103235000D01*
%TO.N,COL1*%
X194516250Y-122285000D02*
X194516250Y-141335000D01*
X194516250Y-84185000D02*
X194516250Y-84781763D01*
X194516250Y-84185000D02*
X194516250Y-103235000D01*
%TO.N,COL2*%
X213566250Y-84185000D02*
X213566250Y-103235000D01*
X213566250Y-122285000D02*
X213566250Y-141335000D01*
%TO.N,Net-(D10-A)*%
X181816250Y-138795000D02*
X181816250Y-153241250D01*
X181816250Y-153241250D02*
X181975000Y-153400000D01*
%TO.N,Net-(D11-A)*%
X200866250Y-138795000D02*
X200866250Y-153241250D01*
X200866250Y-153241250D02*
X201025000Y-153400000D01*
%TO.N,Net-(D12-A)*%
X219916250Y-153241250D02*
X220075000Y-153400000D01*
X219916250Y-138795000D02*
X219916250Y-153241250D01*
%TO.N,Net-(D13-DOUT)*%
X199545626Y-60250000D02*
X196750000Y-60250000D01*
X219729000Y-61199000D02*
X200494626Y-61199000D01*
X193983000Y-63017000D02*
X177128000Y-63017000D01*
X200494626Y-61199000D02*
X199545626Y-60250000D01*
X221500000Y-62970000D02*
X219729000Y-61199000D01*
X177128000Y-63017000D02*
X175130000Y-65015000D01*
X196750000Y-60250000D02*
X193983000Y-63017000D01*
%TO.N,+5V*%
X225000000Y-62970000D02*
X220030000Y-58000000D01*
X197000000Y-59000000D02*
X193384000Y-62616000D01*
X198000000Y-58000000D02*
X197000000Y-59000000D01*
X193384000Y-62616000D02*
X175779000Y-62616000D01*
X175779000Y-62616000D02*
X175130000Y-63265000D01*
X220030000Y-58000000D02*
X198000000Y-58000000D01*
%TO.N,GND*%
X215750000Y-65000000D02*
X203750000Y-65000000D01*
X193397000Y-65143000D02*
X197000000Y-61540000D01*
X218250000Y-62500000D02*
X215750000Y-65000000D01*
X179669374Y-65143000D02*
X193397000Y-65143000D01*
X220470000Y-64720000D02*
X218250000Y-62500000D01*
X221500000Y-64720000D02*
X220470000Y-64720000D01*
X202335787Y-65000000D02*
X198875787Y-61540000D01*
X198875787Y-61540000D02*
X197000000Y-61540000D01*
X173808000Y-65741000D02*
X179071374Y-65741000D01*
X179071374Y-65741000D02*
X179669374Y-65143000D01*
X173808000Y-65741000D02*
X173082000Y-65015000D01*
X173082000Y-65015000D02*
X171630000Y-65015000D01*
X203750000Y-65000000D02*
X202335787Y-65000000D01*
%TO.N,LED*%
X197000000Y-74240000D02*
X215480000Y-74240000D01*
X215480000Y-74240000D02*
X225000000Y-64720000D01*
%TO.N,EC11C*%
X200512626Y-68801000D02*
X199090626Y-70223000D01*
X199090626Y-70223000D02*
X182823000Y-70223000D01*
X218250000Y-67500000D02*
X216949000Y-68801000D01*
X216949000Y-68801000D02*
X200512626Y-68801000D01*
X182823000Y-70223000D02*
X181760000Y-69160000D01*
%TO.N,EC11B*%
X179408000Y-72501626D02*
X181146374Y-74240000D01*
X179408000Y-68358374D02*
X179408000Y-72501626D01*
X203153000Y-68097000D02*
X179669374Y-68097000D01*
X179669374Y-68097000D02*
X179408000Y-68358374D01*
X181146374Y-74240000D02*
X181760000Y-74240000D01*
X203750000Y-67500000D02*
X203153000Y-68097000D01*
%TD*%
M02*
